<svg width="500" height="500" viewBox="0 0 500 500" fill="none" xmlns="http://www.w3.org/2000/svg">
<path opacity="0.7" d="M67.93 167.09C67.93 167.09 40.05 239.09 79.23 311.59C118.41 384.09 199.11 422.39 263.7 455.14C328.29 487.89 395.36 471.94 427.23 418.3C459.1 364.66 415.39 326.37 415.33 249.88C415.27 173.39 426.78 153.14 385.33 88.52C343.88 23.9 242.27 9.59001 165.43 57.52C88.59 105.45 67.93 167.09 67.93 167.09Z" fill="white"/>
<path d="M85.82 453.22C85.82 453.22 -3.58 330.83 51.82 236.76C107.22 142.69 217.25 207.25 238.2 119.46C259.15 31.67 335.62 17.28 408.14 127.06C480.66 236.84 463.31 389.51 424.91 453.22H85.82Z" fill="#FFF0D9"/>
<path opacity="0.7" d="M85.82 453.22C85.82 453.22 -3.58 330.83 51.82 236.76C107.22 142.69 217.25 207.25 238.2 119.46C259.15 31.67 335.62 17.28 408.14 127.06C480.66 236.84 463.31 389.51 424.91 453.22H85.82Z" fill="white"/>
<path d="M39.32 453.22H460.68" stroke="#263238" stroke-linecap="round" stroke-linejoin="round"/>
<path d="M124.06 339.11V452.64" stroke="#263238" stroke-linecap="round" stroke-linejoin="round"/>
<path d="M124.06 324.87V334.2" stroke="#263238" stroke-linecap="round" stroke-linejoin="round"/>
<path d="M385.26 452.89V301.8H124.06V319.6" stroke="#263238" stroke-linecap="round" stroke-linejoin="round"/>
<path d="M358.57 310.66H374.47V445.46" stroke="#263238" stroke-linecap="round" stroke-linejoin="round"/>
<path d="M134.86 452.64V310.66H349.34" stroke="#263238" stroke-linecap="round" stroke-linejoin="round"/>
<path d="M142.47 293.4H147.52" stroke="#263238" stroke-linecap="round" stroke-linejoin="round"/>
<path d="M154.77 293.4H389.82V301.74H119.51V293.4H139.25" stroke="#263238" stroke-linecap="round" stroke-linejoin="round"/>
<path d="M430.95 289.28L428.47 305.37" stroke="#263238" stroke-linecap="round" stroke-linejoin="round"/>
<path d="M415.74 223.23H427.74C429.395 223.231 431.031 223.59 432.535 224.282C434.039 224.974 435.375 225.982 436.453 227.239C437.531 228.495 438.325 229.969 438.78 231.561C439.235 233.153 439.341 234.824 439.09 236.46L432.31 280.46" stroke="#263238" stroke-linecap="round" stroke-linejoin="round"/>
<path d="M403.54 223.23H412.31" stroke="#263238" stroke-linecap="round" stroke-linejoin="round"/>
<path d="M352.16 289.2L360.83 233C361.246 230.291 362.618 227.82 364.698 226.035C366.778 224.25 369.429 223.269 372.17 223.27H397.29" stroke="#263238" stroke-linecap="round" stroke-linejoin="round"/>
<path d="M344.33 340.01L348.23 314.67" stroke="#263238" stroke-linecap="round" stroke-linejoin="round"/>
<path d="M388.72 372.35H400.66C406.351 372.351 411.82 370.146 415.92 366.2" stroke="#263238" stroke-linecap="round" stroke-linejoin="round"/>
<path d="M322.91 372.35H364.52" stroke="#263238" stroke-linecap="round" stroke-linejoin="round"/>
<path d="M305.71 368.59C309.342 371.045 313.626 372.354 318.01 372.35" stroke="#263238" stroke-linecap="round" stroke-linejoin="round"/>
<path d="M371 340H304.22C302.045 340 299.96 340.864 298.422 342.402C296.884 343.94 296.02 346.025 296.02 348.2V350.34C296.008 355.299 297.679 360.115 300.76 364" stroke="#263238" stroke-linecap="round" stroke-linejoin="round"/>
<path d="M422.06 345.12C421.443 343.61 420.391 342.318 419.038 341.409C417.684 340.499 416.091 340.012 414.46 340.01H402.56" stroke="#263238" stroke-linecap="round" stroke-linejoin="round"/>
<path d="M371.12 378.39H342.55L336.55 372.35" stroke="#263238" stroke-linecap="round" stroke-linejoin="round"/>
<path d="M350.76 378.39H367.91V398.49C367.91 398.973 367.718 399.436 367.377 399.777C367.036 400.118 366.573 400.31 366.09 400.31H352.58C352.097 400.31 351.634 400.118 351.293 399.777C350.952 399.436 350.76 398.973 350.76 398.49V378.39Z" stroke="#263238" stroke-linecap="round" stroke-linejoin="round"/>
<path d="M364.7 400.31H353.97V425H364.7V400.31Z" stroke="#263238" stroke-linecap="round" stroke-linejoin="round"/>
<path d="M310.19 440.2C328.05 428.3 354 425 354 425" stroke="#263238" stroke-linecap="round" stroke-linejoin="round"/>
<path d="M371.08 436.65C353 434 335 438 318 442.38" stroke="#263238" stroke-linecap="round" stroke-linejoin="round"/>
<path d="M400.64 442.38C396.52 441.32 392.36 440.38 388.19 439.54" stroke="#263238" stroke-linecap="round" stroke-linejoin="round"/>
<path d="M388.72 430.81C395.686 433.079 402.33 436.235 408.49 440.2" stroke="#263238" stroke-linecap="round" stroke-linejoin="round"/>
<path d="M364.7 425C366.96 425.31 369.2 425.71 371.44 426.17" stroke="#263238" stroke-linecap="round" stroke-linejoin="round"/>
<path d="M312.29 453.66C316.007 453.66 319.02 450.647 319.02 446.93C319.02 443.213 316.007 440.2 312.29 440.2C308.573 440.2 305.56 443.213 305.56 446.93C305.56 450.647 308.573 453.66 312.29 453.66Z" stroke="#263238" stroke-linecap="round" stroke-linejoin="round"/>
<path d="M407.29 453.66C411.007 453.66 414.02 450.647 414.02 446.93C414.02 443.213 411.007 440.2 407.29 440.2C403.573 440.2 400.56 443.213 400.56 446.93C400.56 450.647 403.573 453.66 407.29 453.66Z" stroke="#263238" stroke-linecap="round" stroke-linejoin="round"/>
<path d="M399.13 358.63L404.41 322.89C404.655 321.223 405.435 319.681 406.633 318.496C407.83 317.311 409.381 316.547 411.05 316.32L435.58 313C436.49 312.874 437.324 312.423 437.927 311.73C438.53 311.037 438.861 310.149 438.86 309.23V309.23C438.86 308.221 438.46 307.254 437.748 306.539C437.035 305.825 436.069 305.423 435.06 305.42H432L407.7 309.17C404.803 309.616 402.129 310.99 400.079 313.085C398.029 315.181 396.713 317.884 396.33 320.79L391.25 359.55C391.206 359.888 391.234 360.231 391.333 360.557C391.432 360.883 391.599 361.184 391.823 361.44C392.047 361.696 392.324 361.902 392.633 362.043C392.943 362.185 393.279 362.259 393.62 362.26V362.26" stroke="#263238" stroke-linecap="round" stroke-linejoin="round"/>
<path d="M435.58 313L429.2 346.94C430.046 346.94 430.857 347.276 431.456 347.874C432.054 348.473 432.39 349.284 432.39 350.13V356.61C432.39 358.758 431.537 360.819 430.018 362.338C428.499 363.857 426.438 364.71 424.29 364.71H394.47" stroke="#263238" stroke-linecap="round" stroke-linejoin="round"/>
<path d="M431.35 313.53L424.71 346.17H407.29" stroke="#263238" stroke-linecap="round" stroke-linejoin="round"/>
<path d="M304.3 320.74L302.52 334.36" stroke="#263238" stroke-linecap="round" stroke-linejoin="round"/>
<path d="M310.52 335.72L312.41 322.89C312.655 321.223 313.435 319.681 314.633 318.496C315.83 317.311 317.381 316.547 319.05 316.32L343.58 313" stroke="#263238" stroke-linecap="round" stroke-linejoin="round"/>
<path d="M267.7 97.44H66.62V453.22H267.7V97.44Z" fill="white" stroke="#263238" stroke-linecap="round" stroke-linejoin="round"/>
<path d="M256.22 312.37H78.01" stroke="#263238" stroke-miterlimit="10"/>
<path d="M78.01 238.74H256.22" stroke="#263238" stroke-miterlimit="10"/>
<path d="M136.03 141.94H78.01V227.5H136.03V141.94Z" fill="#FFF0D9" stroke="#263238" stroke-linecap="round" stroke-linejoin="round"/>
<path d="M131.22 227.51V199.84C123.279 196.798 114.833 195.288 106.33 195.39C95.86 195.5 86.59 197.39 81.57 199.6V227.51H131.22Z" fill="#FFF0D9" stroke="#263238" stroke-linecap="round" stroke-linejoin="round"/>
<path d="M103.32 227.51H110L108.38 206.93L110.77 201.79C110.77 201.79 106.9 200.41 103.91 201.79L105.44 206.93L103.32 227.51Z" fill="#263238"/>
<path d="M114.29 192.11L118.74 195.38L113.22 208.71L107.02 201.79L100.17 208.71L94.03 195.38L98.48 192.11H114.29Z" fill="#FFF0D9" stroke="#263238" stroke-linecap="round" stroke-linejoin="round"/>
<path d="M115.59 193.73C115.59 193.73 110.8 200.73 107.02 200.85C104.35 200.92 97.48 194.28 97.48 194.28C99.34 192.61 99.48 189.53 99.18 187.1C99.0472 185.906 98.813 184.725 98.48 183.57H114.29C113.486 185.812 113.293 188.228 113.73 190.57C113.946 191.814 114.607 192.937 115.59 193.73V193.73Z" fill="white" stroke="#263238" stroke-linecap="round" stroke-linejoin="round"/>
<path d="M113.73 190.58C102.31 193.58 100.05 187.05 100.05 187.05H99.18C99.0472 185.856 98.813 184.675 98.48 183.52H114.29C113.475 185.781 113.282 188.219 113.73 190.58V190.58Z" fill="#263238"/>
<path d="M118.69 172.27C118.69 172.27 126.27 148.03 98.48 154.61C98.48 154.61 96.21 153.43 94.82 153.97C93.43 154.51 92.09 164.3 94.45 173.35L118.69 172.27Z" fill="#263238"/>
<path d="M117.73 172.48C117.73 172.48 119 171.09 119.63 171.55C120.046 171.9 120.358 172.357 120.534 172.872C120.71 173.386 120.744 173.938 120.63 174.47C120.29 175.64 118.81 177.69 118.7 178.88C118.59 180.07 117.82 181.43 116.98 180.64C116.14 179.85 117.73 172.48 117.73 172.48Z" fill="white" stroke="#263238" stroke-linecap="round" stroke-linejoin="round"/>
<path d="M95 172.48C95 172.48 93.73 171.09 93.11 171.55C92.6944 171.9 92.3818 172.357 92.2057 172.872C92.0295 173.386 91.9965 173.938 92.11 174.47C92.45 175.64 93.93 177.69 94.05 178.88C94.17 180.07 94.93 181.43 95.76 180.64C96.59 179.85 95 172.48 95 172.48Z" fill="white" stroke="#263238" stroke-linecap="round" stroke-linejoin="round"/>
<path d="M106.12 156.49C122.12 156.49 118.32 177.81 115.37 184.66C114.37 187.06 108.98 190.21 106.37 190.21C103.96 190.21 98.44 186.44 97.46 184.21C94.5 177.31 90.86 156.49 106.12 156.49Z" fill="white" stroke="#263238" stroke-linecap="round" stroke-linejoin="round"/>
<path d="M108.83 169.65C108.83 169.65 113 168.37 114.29 170.94" stroke="#263238" stroke-linecap="round" stroke-linejoin="round"/>
<path d="M111.92 173.16C111.92 173.65 111.67 174.05 111.36 174.05C111.05 174.05 110.8 173.65 110.8 173.16C110.8 172.67 111.05 172.27 111.36 172.27C111.67 172.27 111.92 172.67 111.92 173.16Z" fill="#263238"/>
<path d="M103.94 169.65C103.94 169.65 99.77 168.37 98.48 170.94" stroke="#263238" stroke-linecap="round" stroke-linejoin="round"/>
<path d="M100.86 173.16C100.86 173.65 101.1 174.05 101.41 174.05C101.72 174.05 101.97 173.65 101.97 173.16C101.97 172.67 101.72 172.27 101.41 172.27C101.1 172.27 100.86 172.67 100.86 173.16Z" fill="#263238"/>
<path d="M97.39 162.9C96.54 163.99 97.39 167.34 97.62 168.71C97.85 170.08 95.75 171 96 174.47L95.19 175.66C95.19 175.66 92.93 170.11 93.5 165.33C94.07 160.55 97.08 158.7 97.08 158.7C97.08 158.7 98.45 154.58 106.51 154.61C115.19 154.61 116.07 159.34 116.07 159.34C116.07 159.34 121.95 163.27 117.6 176.06L116.65 174.47C116.876 172.774 116.486 171.053 115.55 169.62C114.8 168.51 116.01 165.18 115.73 163.48C115.45 161.78 98.25 161.82 97.39 162.9Z" fill="#263238"/>
<path d="M107.34 172.27C107.34 172.27 107.58 177.19 108.28 178.58C108.98 179.97 106.52 180.19 105.47 179.37" stroke="#263238" stroke-linecap="round" stroke-linejoin="round"/>
<path d="M102.88 182C102.991 182.401 103.179 182.776 103.435 183.103C103.69 183.431 104.008 183.705 104.37 183.91C106.019 184.304 107.742 184.263 109.37 183.79C109.839 183.336 110.165 182.756 110.31 182.12" fill="white"/>
<path d="M102.88 182C102.991 182.401 103.179 182.776 103.435 183.103C103.69 183.431 104.008 183.705 104.37 183.91C106.019 184.304 107.742 184.263 109.37 183.79C109.839 183.336 110.165 182.756 110.31 182.12" stroke="#263238" stroke-linecap="round" stroke-linejoin="round"/>
<path d="M102.53 181.92C105.255 182.508 108.075 182.508 110.8 181.92" stroke="#263238" stroke-linecap="round" stroke-linejoin="round"/>
<path d="M90.19 197.04L78.01 200.41V227.5H105.68L90.19 197.04Z" fill="#999999" stroke="#263238" stroke-linecap="round" stroke-linejoin="round"/>
<path d="M136.03 201.18L120.73 196.34L107.95 227.5H136.03V201.18Z" fill="#999999" stroke="#263238" stroke-linecap="round" stroke-linejoin="round"/>
<path d="M113.31 227.51L122.32 217.02L116.75 211.68L125.29 206.93L122.35 197.11L118.74 195.38L107.78 227.51H113.31Z" fill="#BFBFBF" stroke="#263238" stroke-linecap="round" stroke-linejoin="round"/>
<path d="M91.07 218.1L100.04 227.51H106.02L94.03 195.38L90.19 197.04L87.31 206.16L96.02 213.07L91.07 218.1Z" fill="#BFBFBF" stroke="#263238" stroke-linecap="round" stroke-linejoin="round"/>
<path d="M78.06 131.7H256.26" stroke="#263238" stroke-linecap="round" stroke-linejoin="round"/>
<path d="M147.75 146.33H191.31C191.557 146.348 191.805 146.316 192.039 146.234C192.273 146.152 192.487 146.023 192.669 145.854C192.85 145.686 192.995 145.482 193.094 145.255C193.193 145.028 193.244 144.783 193.244 144.535C193.244 144.287 193.193 144.042 193.094 143.815C192.995 143.588 192.85 143.384 192.669 143.216C192.487 143.047 192.273 142.918 192.039 142.836C191.805 142.754 191.557 142.722 191.31 142.74H147.75C147.297 142.774 146.874 142.978 146.565 143.311C146.256 143.643 146.084 144.081 146.084 144.535C146.084 144.989 146.256 145.427 146.565 145.759C146.874 146.092 147.297 146.296 147.75 146.33V146.33Z" fill="#263238"/>
<path d="M207.78 155.08H147.78C147.327 155.114 146.904 155.318 146.595 155.651C146.286 155.983 146.114 156.421 146.114 156.875C146.114 157.329 146.286 157.767 146.595 158.099C146.904 158.432 147.327 158.636 147.78 158.67H207.78C208.233 158.636 208.656 158.432 208.965 158.099C209.274 157.767 209.446 157.329 209.446 156.875C209.446 156.421 209.274 155.983 208.965 155.651C208.656 155.318 208.233 155.114 207.78 155.08V155.08Z" fill="#263238"/>
<path d="M174.85 167.43H147.75C147.297 167.464 146.874 167.668 146.565 168.001C146.256 168.333 146.084 168.771 146.084 169.225C146.084 169.679 146.256 170.117 146.565 170.449C146.874 170.782 147.297 170.986 147.75 171.02H174.85C175.097 171.038 175.345 171.006 175.579 170.924C175.813 170.842 176.027 170.713 176.209 170.544C176.39 170.376 176.535 170.172 176.634 169.945C176.733 169.718 176.784 169.473 176.784 169.225C176.784 168.977 176.733 168.732 176.634 168.505C176.535 168.278 176.39 168.074 176.209 167.906C176.027 167.737 175.813 167.608 175.579 167.526C175.345 167.444 175.097 167.412 174.85 167.43V167.43Z" fill="#263238"/>
<path d="M207.78 179.78H147.78C147.327 179.814 146.904 180.018 146.595 180.351C146.286 180.683 146.114 181.121 146.114 181.575C146.114 182.029 146.286 182.467 146.595 182.799C146.904 183.132 147.327 183.336 147.78 183.37H207.78C208.233 183.336 208.656 183.132 208.965 182.799C209.274 182.467 209.446 182.029 209.446 181.575C209.446 181.121 209.274 180.683 208.965 180.351C208.656 180.018 208.233 179.814 207.78 179.78V179.78Z" fill="#263238"/>
<path d="M183.08 192.12H147.75C147.297 192.154 146.874 192.358 146.565 192.691C146.256 193.023 146.084 193.461 146.084 193.915C146.084 194.369 146.256 194.807 146.565 195.139C146.874 195.472 147.297 195.676 147.75 195.71H183.08C183.327 195.728 183.575 195.696 183.809 195.614C184.043 195.532 184.257 195.403 184.439 195.234C184.62 195.066 184.765 194.862 184.864 194.635C184.963 194.408 185.014 194.163 185.014 193.915C185.014 193.667 184.963 193.422 184.864 193.195C184.765 192.968 184.62 192.764 184.439 192.596C184.257 192.427 184.043 192.298 183.809 192.216C183.575 192.134 183.327 192.102 183.08 192.12V192.12Z" fill="#263238"/>
<path d="M165.42 206.27H145.96V225.73H165.42V206.27Z" fill="#BFBFBF" stroke="#263238" stroke-linecap="round" stroke-linejoin="round"/>
<path d="M195.42 206.27H175.96V225.73H195.42V206.27Z" fill="#BFBFBF" stroke="#263238" stroke-linecap="round" stroke-linejoin="round"/>
<path d="M225.42 206.27H205.96V225.73H225.42V206.27Z" fill="#BFBFBF" stroke="#263238" stroke-linecap="round" stroke-linejoin="round"/>
<path d="M107.92 286.66C117.508 286.66 125.28 278.888 125.28 269.3C125.28 259.712 117.508 251.94 107.92 251.94C98.3323 251.94 90.56 259.712 90.56 269.3C90.56 278.888 98.3323 286.66 107.92 286.66Z" stroke="#263238" stroke-width="5" stroke-miterlimit="10"/>
<path d="M125.29 269.3C125.29 272.735 124.271 276.094 122.363 278.95C120.454 281.807 117.741 284.033 114.567 285.348C111.393 286.662 107.901 287.006 104.531 286.336C101.162 285.666 98.0668 284.012 95.6376 281.582C93.2083 279.153 91.554 276.058 90.8838 272.689C90.2135 269.319 90.5575 265.827 91.8722 262.653C93.1869 259.479 95.4133 256.766 98.2697 254.857C101.126 252.949 104.485 251.93 107.92 251.93" stroke="#FFF0D9" stroke-width="5" stroke-linecap="round" stroke-linejoin="round"/>
<path d="M121.47 296.47H94.38C94.133 296.452 93.8849 296.484 93.6511 296.566C93.4173 296.648 93.203 296.777 93.0214 296.946C92.8399 297.114 92.6951 297.318 92.5961 297.545C92.497 297.772 92.4459 298.017 92.4459 298.265C92.4459 298.513 92.497 298.758 92.5961 298.985C92.6951 299.212 92.8399 299.416 93.0214 299.584C93.203 299.753 93.4173 299.882 93.6511 299.964C93.8849 300.046 94.133 300.078 94.38 300.06H121.47C121.717 300.078 121.965 300.046 122.199 299.964C122.433 299.882 122.647 299.753 122.829 299.584C123.01 299.416 123.155 299.212 123.254 298.985C123.353 298.758 123.404 298.513 123.404 298.265C123.404 298.017 123.353 297.772 123.254 297.545C123.155 297.318 123.01 297.114 122.829 296.946C122.647 296.777 122.433 296.648 122.199 296.566C121.965 296.484 121.717 296.452 121.47 296.47V296.47Z" fill="#263238"/>
<path d="M165.18 286.66C174.768 286.66 182.54 278.888 182.54 269.3C182.54 259.712 174.768 251.94 165.18 251.94C155.592 251.94 147.82 259.712 147.82 269.3C147.82 278.888 155.592 286.66 165.18 286.66Z" stroke="#263238" stroke-width="5" stroke-miterlimit="10"/>
<path d="M177.46 281.57C175.441 283.587 172.956 285.076 170.224 285.904C167.493 286.732 164.599 286.873 161.8 286.316C159.001 285.759 156.382 284.52 154.176 282.709C151.969 280.898 150.244 278.571 149.151 275.935C148.059 273.298 147.633 270.432 147.913 267.592C148.192 264.751 149.167 262.023 150.752 259.65C152.337 257.276 154.483 255.33 156.999 253.983C159.516 252.637 162.326 251.932 165.18 251.93" stroke="#FFF0D9" stroke-width="5" stroke-linecap="round" stroke-linejoin="round"/>
<path d="M178.73 296.47H151.63C151.177 296.504 150.754 296.708 150.445 297.041C150.136 297.373 149.964 297.811 149.964 298.265C149.964 298.719 150.136 299.157 150.445 299.489C150.754 299.822 151.177 300.026 151.63 300.06H178.73C178.977 300.078 179.225 300.046 179.459 299.964C179.693 299.882 179.907 299.753 180.089 299.584C180.27 299.416 180.415 299.212 180.514 298.985C180.613 298.758 180.664 298.513 180.664 298.265C180.664 298.017 180.613 297.772 180.514 297.545C180.415 297.318 180.27 297.114 180.089 296.946C179.907 296.777 179.693 296.648 179.459 296.566C179.225 296.484 178.977 296.452 178.73 296.47Z" fill="#263238"/>
<path d="M222.44 286.66C232.028 286.66 239.8 278.888 239.8 269.3C239.8 259.712 232.028 251.94 222.44 251.94C212.852 251.94 205.08 259.712 205.08 269.3C205.08 278.888 212.852 286.66 222.44 286.66Z" stroke="#263238" stroke-width="5" stroke-miterlimit="10"/>
<path d="M222.44 286.66C217.907 286.551 213.596 284.674 210.428 281.429C207.26 278.184 205.487 273.83 205.487 269.295C205.487 264.76 207.26 260.406 210.428 257.161C213.596 253.916 217.907 252.039 222.44 251.93" stroke="#FFF0D9" stroke-width="5" stroke-linecap="round" stroke-linejoin="round"/>
<path d="M236 296.47H208.9C208.447 296.504 208.024 296.708 207.715 297.041C207.406 297.373 207.234 297.811 207.234 298.265C207.234 298.719 207.406 299.157 207.715 299.489C208.024 299.822 208.447 300.026 208.9 300.06H236C236.453 300.026 236.876 299.822 237.185 299.489C237.494 299.157 237.666 298.719 237.666 298.265C237.666 297.811 237.494 297.373 237.185 297.041C236.876 296.708 236.453 296.504 236 296.47V296.47Z" fill="#263238"/>
<path d="M111.56 323.37H78.06V356.87H111.56V323.37Z" fill="#BFBFBF" stroke="#263238" stroke-linecap="round" stroke-linejoin="round"/>
<path d="M121.75 327H225.31C225.557 327.018 225.805 326.986 226.039 326.904C226.273 326.822 226.487 326.693 226.669 326.524C226.85 326.356 226.995 326.152 227.094 325.925C227.193 325.698 227.244 325.453 227.244 325.205C227.244 324.957 227.193 324.712 227.094 324.485C226.995 324.258 226.85 324.054 226.669 323.886C226.487 323.717 226.273 323.588 226.039 323.506C225.805 323.424 225.557 323.392 225.31 323.41H121.75C121.297 323.444 120.874 323.648 120.565 323.981C120.256 324.313 120.084 324.751 120.084 325.205C120.084 325.659 120.256 326.097 120.565 326.429C120.874 326.762 121.297 326.966 121.75 327V327Z" fill="#263238"/>
<path d="M241.78 335.72H121.78C121.327 335.754 120.904 335.958 120.595 336.291C120.286 336.623 120.114 337.061 120.114 337.515C120.114 337.969 120.286 338.407 120.595 338.739C120.904 339.072 121.327 339.276 121.78 339.31H241.78C242.233 339.276 242.656 339.072 242.965 338.739C243.274 338.407 243.446 337.969 243.446 337.515C243.446 337.061 243.274 336.623 242.965 336.291C242.656 335.958 242.233 335.754 241.78 335.72V335.72Z" fill="#263238"/>
<path d="M238.85 348.06H121.75C121.297 348.094 120.874 348.298 120.565 348.631C120.256 348.963 120.084 349.401 120.084 349.855C120.084 350.309 120.256 350.747 120.565 351.079C120.874 351.412 121.297 351.616 121.75 351.65H238.85C239.097 351.668 239.345 351.636 239.579 351.554C239.813 351.472 240.027 351.343 240.209 351.174C240.39 351.006 240.535 350.802 240.634 350.575C240.733 350.348 240.784 350.103 240.784 349.855C240.784 349.607 240.733 349.362 240.634 349.135C240.535 348.908 240.39 348.704 240.209 348.536C240.027 348.367 239.813 348.238 239.579 348.156C239.345 348.074 239.097 348.042 238.85 348.06V348.06Z" fill="#263238"/>
<path d="M241.78 360.41H121.78C121.327 360.444 120.904 360.648 120.595 360.981C120.286 361.313 120.114 361.751 120.114 362.205C120.114 362.659 120.286 363.097 120.595 363.429C120.904 363.762 121.327 363.966 121.78 364H241.78C242.233 363.966 242.656 363.762 242.965 363.429C243.274 363.097 243.446 362.659 243.446 362.205C243.446 361.751 243.274 361.313 242.965 360.981C242.656 360.648 242.233 360.444 241.78 360.41V360.41Z" fill="#263238"/>
<path d="M147.08 372.76H121.75C121.297 372.794 120.874 372.998 120.565 373.331C120.256 373.663 120.084 374.101 120.084 374.555C120.084 375.009 120.256 375.447 120.565 375.779C120.874 376.112 121.297 376.316 121.75 376.35H147.08C147.327 376.368 147.575 376.336 147.809 376.254C148.043 376.172 148.257 376.043 148.439 375.874C148.62 375.706 148.765 375.502 148.864 375.275C148.963 375.048 149.014 374.803 149.014 374.555C149.014 374.307 148.963 374.062 148.864 373.835C148.765 373.608 148.62 373.404 148.439 373.236C148.257 373.067 148.043 372.938 147.809 372.856C147.575 372.774 147.327 372.742 147.08 372.76V372.76Z" fill="#263238"/>
<path d="M111.56 388.37H78.06V421.87H111.56V388.37Z" fill="#BFBFBF" stroke="#263238" stroke-linecap="round" stroke-linejoin="round"/>
<path d="M121.75 392H225.31C225.557 392.018 225.805 391.986 226.039 391.904C226.273 391.822 226.487 391.693 226.669 391.524C226.85 391.356 226.995 391.152 227.094 390.925C227.193 390.698 227.244 390.453 227.244 390.205C227.244 389.957 227.193 389.712 227.094 389.485C226.995 389.258 226.85 389.054 226.669 388.886C226.487 388.717 226.273 388.588 226.039 388.506C225.805 388.424 225.557 388.392 225.31 388.41H121.75C121.297 388.444 120.874 388.648 120.565 388.981C120.256 389.313 120.084 389.751 120.084 390.205C120.084 390.659 120.256 391.097 120.565 391.429C120.874 391.762 121.297 391.966 121.75 392Z" fill="#263238"/>
<path d="M241.78 400.72H121.78C121.327 400.754 120.904 400.958 120.595 401.291C120.286 401.623 120.114 402.061 120.114 402.515C120.114 402.969 120.286 403.407 120.595 403.739C120.904 404.072 121.327 404.276 121.78 404.31H241.78C242.233 404.276 242.656 404.072 242.965 403.739C243.274 403.407 243.446 402.969 243.446 402.515C243.446 402.061 243.274 401.623 242.965 401.291C242.656 400.958 242.233 400.754 241.78 400.72V400.72Z" fill="#263238"/>
<path d="M238.85 413.06H121.75C121.297 413.094 120.874 413.298 120.565 413.631C120.256 413.963 120.084 414.401 120.084 414.855C120.084 415.309 120.256 415.747 120.565 416.079C120.874 416.412 121.297 416.616 121.75 416.65H238.85C239.097 416.668 239.345 416.636 239.579 416.554C239.813 416.472 240.027 416.343 240.209 416.174C240.39 416.006 240.535 415.802 240.634 415.575C240.733 415.348 240.784 415.103 240.784 414.855C240.784 414.607 240.733 414.362 240.634 414.135C240.535 413.908 240.39 413.704 240.209 413.536C240.027 413.367 239.813 413.238 239.579 413.156C239.345 413.074 239.097 413.042 238.85 413.06V413.06Z" fill="#263238"/>
<path d="M241.78 425.41H121.78C121.327 425.444 120.904 425.648 120.595 425.981C120.286 426.313 120.114 426.751 120.114 427.205C120.114 427.659 120.286 428.097 120.595 428.429C120.904 428.762 121.327 428.966 121.78 429H241.78C242.233 428.966 242.656 428.762 242.965 428.429C243.274 428.097 243.446 427.659 243.446 427.205C243.446 426.751 243.274 426.313 242.965 425.981C242.656 425.648 242.233 425.444 241.78 425.41Z" fill="#263238"/>
<path d="M147.08 437.76H121.75C121.297 437.794 120.874 437.998 120.565 438.331C120.256 438.663 120.084 439.101 120.084 439.555C120.084 440.009 120.256 440.447 120.565 440.779C120.874 441.112 121.297 441.316 121.75 441.35H147.08C147.327 441.368 147.575 441.336 147.809 441.254C148.043 441.172 148.257 441.043 148.439 440.874C148.62 440.706 148.765 440.502 148.864 440.275C148.963 440.048 149.014 439.803 149.014 439.555C149.014 439.307 148.963 439.062 148.864 438.835C148.765 438.608 148.62 438.404 148.439 438.236C148.257 438.067 148.043 437.938 147.809 437.856C147.575 437.774 147.327 437.742 147.08 437.76V437.76Z" fill="#263238"/>
<path d="M280.73 99.35L289.19 111.74L281.32 117.74L274.28 107.25" fill="white"/>
<path d="M280.73 99.35L289.19 111.74L281.32 117.74L274.28 107.25" stroke="#263238" stroke-linecap="round" stroke-linejoin="round"/>
<path d="M291.52 112.23L285.01 103.41L275.48 110.59L280.2 119.36L291.52 112.23Z" fill="#FFF0D9" stroke="#263238" stroke-linecap="round" stroke-linejoin="round"/>
<path d="M346.94 157.61L346.72 186.88C346.72 186.88 343.17 185.12 338.09 182.48C328.94 177.71 314.84 170.1 307.72 164.85C306.221 163.84 304.874 162.621 303.72 161.23C299.11 154.64 276.39 115.76 276.39 115.76L288.56 107L310.56 139.46L315.96 147.46L316.46 147.63L346.94 157.61Z" fill="#999999"/>
<path opacity="0.3" d="M342 169.22L338.06 182.48C328.91 177.71 314.81 170.1 307.69 164.85C321.67 167.51 342 169.22 342 169.22Z" fill="black" fill-opacity="0.7"/>
<path opacity="0.3" d="M316.46 147.58C312.14 148.73 310.8 151.58 310.8 151.58C308.8 146.27 309.41 142.2 310.56 139.45L315.96 147.45L316.46 147.58Z" fill="black" fill-opacity="0.7"/>
<path d="M346.94 157.61L346.72 186.88C346.72 186.88 343.17 185.12 338.09 182.48C328.94 177.71 314.84 170.1 307.72 164.85C306.221 163.84 304.874 162.621 303.72 161.23C299.11 154.64 276.39 115.76 276.39 115.76L288.56 107L310.56 139.46L315.96 147.46L316.46 147.63L346.94 157.61Z" stroke="#263238" stroke-linecap="round" stroke-linejoin="round"/>
<path d="M281.2 101.71C281.553 100.999 281.757 100.223 281.8 99.43C281.872 98.3674 281.771 97.3001 281.5 96.27C281.233 95.214 280.812 94.2031 280.25 93.27C279.76 92.4233 279.342 91.5369 279 90.62C278.76 90 278.55 89.38 278.37 88.79C277.998 87.5686 277.697 86.3264 277.47 85.07C277.47 85.07 275.47 84.4 275.25 86.34C275.2 86.874 275.223 87.4124 275.32 87.94C275.48 88.84 275.77 89.77 275.94 90.52C276.091 90.9471 276.118 91.4079 276.02 91.85C275.947 92.0148 275.853 92.1694 275.74 92.31L275.62 92.47C275.373 92.7675 275.057 93.0008 274.7 93.15C274.545 93.2159 274.379 93.2532 274.21 93.26C274.167 93.2706 274.123 93.2706 274.08 93.26C273.957 93.2742 273.833 93.2742 273.71 93.26C273.056 93.12 272.425 92.8841 271.84 92.56V92.56C270.966 92.1033 270.127 91.5818 269.33 91V91C269.03 90.77 268.74 90.55 268.46 90.32C267.763 89.7548 267.095 89.154 266.46 88.52C266.01 88.07 265.51 87.58 264.99 87.12C264.47 86.66 263.99 86.25 263.51 85.88C262.09 84.81 260.79 84.26 260.34 85.36C259.89 86.46 260.43 86.79 261.57 87.85C261.97 88.22 262.45 88.67 263 89.23C263.95 90.2288 264.823 91.2985 265.61 92.43V92.43L265.92 92.87L265.5 93.45C265.57 93.56 265.32 93.45 264.84 93.25C263.591 92.6239 262.385 91.9157 261.23 91.13C260.71 90.79 260.16 90.4 259.62 90.01C259.08 89.62 258.62 89.28 258.18 88.9C255.87 87.01 255.33 89.18 255.71 90.14C256.325 90.9838 257.104 91.6947 258 92.23L259.61 93.42L260.36 94.01C261.36 94.81 262.36 95.62 263.03 96.18L263.31 96.4L263.07 97.31L262.64 97.2C261.391 96.8866 260.173 96.4616 259 95.93C258.21 95.57 257.6 95.23 257.12 94.93C256.22 94.46 255.73 94.3 255.12 94.84C254.51 95.38 255.12 96.39 256.12 97.25C256.919 97.9192 257.816 98.4621 258.78 98.86V98.86C258.954 98.9259 259.13 98.9826 259.31 99.03C260.213 99.3235 261.073 99.7336 261.87 100.25L262.36 100.54L262.53 101.28L261.73 101.2C260.888 101.096 260.054 100.943 259.23 100.74V100.74C258.572 100.558 257.904 100.411 257.23 100.3C257.023 100.245 256.805 100.254 256.603 100.325C256.401 100.396 256.226 100.527 256.1 100.7C255.71 101.28 256.32 101.92 257.25 102.45C257.816 102.758 258.413 103.006 259.03 103.19C259.483 103.339 259.954 103.43 260.43 103.46C261.319 103.574 262.192 103.792 263.03 104.11L264.03 104.48C265.27 104.93 266.41 105.4 266.8 105.56L266.95 105.62C267.77 106.16 268.49 106.62 269.13 106.95C270.628 107.847 272.31 108.394 274.05 108.55C274.855 108.538 275.629 108.236 276.23 107.7" fill="white"/>
<path d="M281.2 101.71C281.553 100.999 281.757 100.223 281.8 99.43C281.872 98.3674 281.771 97.3001 281.5 96.27C281.233 95.214 280.812 94.2031 280.25 93.27C279.76 92.4233 279.342 91.5369 279 90.62C278.76 90 278.55 89.38 278.37 88.79C277.998 87.5686 277.697 86.3264 277.47 85.07C277.47 85.07 275.47 84.4 275.25 86.34C275.2 86.874 275.223 87.4124 275.32 87.94C275.48 88.84 275.77 89.77 275.94 90.52C276.091 90.9471 276.118 91.4079 276.02 91.85C275.947 92.0148 275.853 92.1694 275.74 92.31L275.62 92.47C275.373 92.7675 275.057 93.0008 274.7 93.15C274.545 93.2159 274.379 93.2532 274.21 93.26C274.167 93.2706 274.123 93.2706 274.08 93.26C273.957 93.2742 273.833 93.2742 273.71 93.26C273.056 93.12 272.425 92.8841 271.84 92.56V92.56C270.966 92.1033 270.127 91.5818 269.33 91V91C269.03 90.77 268.74 90.55 268.46 90.32C267.763 89.7548 267.095 89.154 266.46 88.52C266.01 88.07 265.51 87.58 264.99 87.12C264.47 86.66 263.99 86.25 263.51 85.88C262.09 84.81 260.79 84.26 260.34 85.36C259.89 86.46 260.43 86.79 261.57 87.85C261.97 88.22 262.45 88.67 263 89.23C263.95 90.2288 264.823 91.2985 265.61 92.43V92.43L265.92 92.87L265.5 93.45C265.57 93.56 265.32 93.45 264.84 93.25C263.591 92.6239 262.385 91.9157 261.23 91.13C260.71 90.79 260.16 90.4 259.62 90.01C259.08 89.62 258.62 89.28 258.18 88.9C255.87 87.01 255.33 89.18 255.71 90.14C256.325 90.9838 257.104 91.6947 258 92.23L259.61 93.42L260.36 94.01C261.36 94.81 262.36 95.62 263.03 96.18L263.31 96.4L263.07 97.31L262.64 97.2C261.391 96.8866 260.173 96.4616 259 95.93C258.21 95.57 257.6 95.23 257.12 94.93C256.22 94.46 255.73 94.3 255.12 94.84C254.51 95.38 255.12 96.39 256.12 97.25C256.919 97.9192 257.816 98.4621 258.78 98.86V98.86C258.954 98.9259 259.13 98.9826 259.31 99.03C260.213 99.3235 261.073 99.7336 261.87 100.25L262.36 100.54L262.53 101.28L261.73 101.2C260.888 101.096 260.054 100.943 259.23 100.74V100.74C258.572 100.558 257.904 100.411 257.23 100.3C257.023 100.245 256.805 100.254 256.603 100.325C256.401 100.396 256.226 100.527 256.1 100.7C255.71 101.28 256.32 101.92 257.25 102.45C257.816 102.758 258.413 103.006 259.03 103.19C259.483 103.339 259.954 103.43 260.43 103.46C261.319 103.574 262.192 103.792 263.03 104.11L264.03 104.48C265.27 104.93 266.41 105.4 266.8 105.56L266.95 105.62C267.77 106.16 268.49 106.62 269.13 106.95C270.628 107.847 272.31 108.394 274.05 108.55C274.855 108.538 275.629 108.236 276.23 107.7" stroke="#263238" stroke-linecap="round" stroke-linejoin="round"/>
<path d="M274.06 93.32C274.06 93.32 271.37 96.62 273.59 99.78" stroke="#263238" stroke-linecap="round" stroke-linejoin="round"/>
<path d="M323.9 168.19C323.9 168.19 327.31 174.51 336.15 180.06" stroke="#263238" stroke-linecap="round" stroke-linejoin="round"/>
<path d="M316 147.41C316 147.41 309 147.93 311.2 154.75" stroke="#263238" stroke-linecap="round" stroke-linejoin="round"/>
<path d="M434.43 423.87C434.43 423.87 415.2 440.28 405.17 442.94C395.14 445.6 398 453.16 398 453.16H421.4L431.4 451V453.22H437.61C437.61 453.22 443.13 450.39 441.76 436.22C441.71 435.35 434.43 423.87 434.43 423.87Z" fill="#263238"/>
<path d="M226.43 428.87C226.43 428.87 210.2 440.28 200.17 442.94C190.14 445.6 193 453.16 193 453.16H216.4L226.4 451V453.22H232.61C232.61 453.22 238.13 450.39 236.76 436.22C236.68 435.347 236.57 434.437 236.43 433.49C234.08 417 226.43 428.87 226.43 428.87Z" fill="#263238"/>
<path d="M420.55 436.8C420.55 436.8 360.27 388.07 356.83 381.74C353.39 375.41 346.56 317.45 346.56 317.45C345.68 318.07 289.18 358.18 286.56 362.07C286.38 362.34 286.01 362.92 285.47 363.78C277.99 375.63 238.54 439.78 238.54 439.78C235.273 439.883 232.023 439.272 229.017 437.99C226.01 436.709 223.318 434.788 221.13 432.36L261.77 344.77L321.33 286.53L322.22 285.65L327.9 263L379 256.75C379 256.75 383.4 272.96 385.75 285.67C385.854 286.472 385.904 287.281 385.9 288.09C386.16 302.35 382.08 366.34 384.2 371.71C386.48 377.52 435.11 423.15 435.11 423.15C435.63 433.48 420.55 436.8 420.55 436.8Z" fill="#757575"/>
<path opacity="0.3" d="M346.56 317.45C345.68 318.07 289.18 358.18 286.56 362.07C286.38 362.34 286.01 362.92 285.47 363.78C283.29 349.39 323.91 318.92 323.91 318.92L315.67 314.66L331.89 312.27C326.27 309.67 328.13 302.58 328.13 302.58L346.56 317.45Z" fill="black" fill-opacity="0.7"/>
<path opacity="0.3" d="M349.91 294.27L352.59 298.27C336.71 294.76 326.78 289.91 321.33 286.55L322.22 285.67L327.9 263L379 256.75C379 256.75 383.4 272.96 385.75 285.67C385.854 286.472 385.904 287.281 385.9 288.09C372.37 293.35 349.91 294.27 349.91 294.27Z" fill="black" fill-opacity="0.7"/>
<path d="M420.55 436.8C420.55 436.8 360.27 388.07 356.83 381.74C353.39 375.41 346.56 317.45 346.56 317.45C345.68 318.07 289.18 358.18 286.56 362.07C286.38 362.34 286.01 362.92 285.47 363.78C277.99 375.63 238.54 439.78 238.54 439.78C235.273 439.883 232.023 439.272 229.017 437.99C226.01 436.709 223.318 434.788 221.13 432.36L261.77 344.77L321.33 286.53L322.22 285.65L327.9 263L379 256.75C379 256.75 383.4 272.96 385.75 285.67C385.854 286.472 385.904 287.281 385.9 288.09C386.16 302.35 382.08 366.34 384.2 371.71C386.48 377.52 435.11 423.15 435.11 423.15C435.63 433.48 420.55 436.8 420.55 436.8Z" stroke="#263238" stroke-linecap="round" stroke-linejoin="round"/>
<path d="M391.4 212.21C388.54 228.3 377.06 247.93 377.06 247.93L379.76 256.34L387 278.83L347.59 290.57L340.42 277.1L333.81 289.59L320.39 284.21L321.49 278.55L324.03 265.45C323.97 264.71 323.92 263.93 323.86 263.13C322.21 238.79 322.38 188.84 345.11 157.13C345.11 157.13 378.85 161.83 391.2 199.56C392.32 203.07 392.23 207.49 391.4 212.21Z" fill="#999999"/>
<path opacity="0.3" d="M377.06 247.93L379.76 256.34C373.04 262.55 364.94 270.06 364.17 271C363.17 272.21 335.55 276.45 321.46 278.55L324 265.45C323.94 264.71 323.89 263.93 323.83 263.13L381 216L391.4 212.21C388.54 228.3 377.06 247.93 377.06 247.93Z" fill="black" fill-opacity="0.7"/>
<path d="M391.4 212.21C388.54 228.3 377.06 247.93 377.06 247.93L379.76 256.34L387 278.83L347.59 290.57L340.42 277.1L333.81 289.59L320.39 284.21L321.49 278.55L324.03 265.45C323.97 264.71 323.92 263.93 323.86 263.13C322.21 238.79 322.38 188.84 345.11 157.13C345.11 157.13 378.85 161.83 391.2 199.56C392.32 203.07 392.23 207.49 391.4 212.21Z" stroke="#263238" stroke-linecap="round" stroke-linejoin="round"/>
<path d="M337.69 221.5C337.69 221.5 393.01 176.68 372.59 169.64C354.2 163.29 330.7 177.56 337.69 221.5Z" fill="#FFF0D9" stroke="#263238" stroke-linecap="round" stroke-linejoin="round"/>
<path d="M357.51 185.65L349.91 188.94C345.988 198.83 343.489 209.227 342.49 219.82L336.63 227.23L335 219.82C335 219.82 337.86 197.39 347.57 188.23L349.92 179.32L359.1 174.62L357.51 185.65Z" fill="#263238"/>
<path d="M338.27 218.66C338.27 218.66 381.92 188.12 371.85 167.66C371.85 167.66 383.8 167.35 378.75 196.66L364.17 200.91L368.24 209.06C368.24 209.06 351.82 212.38 336.63 227.21L330.7 192.32L334.99 189.15L332.47 183.79C332.47 183.79 347.56 167 362 168.41C362 168.41 344.8 175.56 340.34 189.17C335.88 202.78 338.27 218.66 338.27 218.66Z" fill="#BFBFBF" stroke="#263238" stroke-linecap="round" stroke-linejoin="round"/>
<path d="M363.28 166.63C363.28 166.63 349.87 170.68 343.88 183.9L351.09 181.23L351.82 183.46L355.43 184.95V192.34C355.43 192.34 376.08 182.99 376.12 175.41C376.13 173.26 371 163.16 363.28 166.63Z" fill="#FFF0D9" stroke="#263238" stroke-linecap="round" stroke-linejoin="round"/>
<path d="M376.42 155.27C371.18 163.68 374.65 173.97 374.65 173.97C374.65 173.97 359 185.63 354.1 182.39C354.259 179.055 354.182 175.714 353.87 172.39C353.625 169.539 353.198 166.706 352.59 163.91C352.59 163.91 354.25 162.91 356.7 161.58C364.51 157.19 380.42 148.87 376.42 155.27Z" fill="white" stroke="#263238" stroke-linecap="round" stroke-linejoin="round"/>
<path d="M275.22 295C275.725 294.598 276.185 294.142 276.59 293.64C276.895 293.273 277.154 292.87 277.36 292.44C277.807 291.663 278.341 290.938 278.95 290.28L279.69 289.46C280.58 288.46 281.44 287.61 281.74 287.31L281.85 287.19C282.66 286.63 283.33 286.14 283.85 285.68C285.254 284.634 286.403 283.284 287.21 281.73C288.29 279.73 285.21 274.52 283.54 272.53C283.011 271.938 282.368 271.458 281.65 271.12C280.708 270.646 279.695 270.332 278.65 270.19C277.572 270.035 276.478 270.035 275.4 270.19C274.433 270.325 273.456 270.378 272.48 270.35C271.82 270.35 271.16 270.29 270.55 270.23C269.277 270.11 268.012 269.92 266.76 269.66C266.582 269.833 266.448 270.045 266.367 270.28C266.286 270.514 266.261 270.765 266.294 271.01C266.327 271.256 266.417 271.491 266.557 271.696C266.697 271.901 266.883 272.07 267.1 272.19C267.573 272.438 268.078 272.62 268.6 272.73C269.5 272.93 270.47 273.02 271.22 273.14C271.676 273.159 272.117 273.308 272.49 273.57C272.612 273.702 272.719 273.846 272.81 274V274L272.91 274.17C273.087 274.514 273.183 274.893 273.19 275.28C273.189 275.447 273.162 275.612 273.11 275.77C273.119 275.813 273.119 275.857 273.11 275.9C273.058 276.014 272.998 276.124 272.93 276.23C272.552 276.782 272.094 277.274 271.57 277.69C270.805 278.318 269.992 278.886 269.14 279.39V279.39L268.14 279.93C267.351 280.368 266.54 280.765 265.71 281.12C265.12 281.37 264.48 281.65 263.86 281.95C263.274 282.218 262.703 282.518 262.15 282.85C260.61 283.76 259.62 284.75 260.46 285.58C261.3 286.41 261.82 286.05 263.24 285.39C263.73 285.16 264.32 284.89 265.05 284.59C266.336 284.092 267.656 283.687 269 283.38L269.52 283.26L269.9 283.86C270.03 283.86 269.9 284.05 269.47 284.4C268.435 285.333 267.343 286.202 266.2 287C265.68 287.35 265.11 287.72 264.54 288.06C263.97 288.4 263.54 288.69 262.97 288.97C260.35 290.4 262.15 291.72 263.18 291.73C264.203 291.491 265.166 291.045 266.01 290.42L267.73 289.37L268.56 288.91C269.66 288.32 270.8 287.69 271.56 287.26L271.86 287.09L272.62 287.65L272.36 288.01C271.598 289.041 270.744 290.002 269.81 290.88C269.17 291.48 268.63 291.88 268.22 292.26C267.45 292.93 267.11 293.32 267.39 294.05C267.67 294.78 268.82 294.66 269.99 294.05C270.909 293.564 271.749 292.94 272.48 292.2V292.2C272.609 292.065 272.729 291.921 272.84 291.77C273.447 291.045 274.15 290.406 274.93 289.87L275.39 289.53L276.14 289.65C276.02 289.9 275.89 290.14 275.76 290.36C275.345 291.099 274.888 291.814 274.39 292.5V292.5C273.966 293.045 273.572 293.612 273.21 294.2C273.075 294.367 272.998 294.572 272.989 294.787C272.98 295.001 273.04 295.213 273.16 295.39C273.55 296 274.39 295.63 275.22 295Z" fill="white" stroke="#263238" stroke-linecap="round" stroke-linejoin="round"/>
<path d="M281.16 272.4L295.37 267.57L299.04 276.75L287.05 280.73" fill="white"/>
<path d="M281.16 272.4L295.37 267.57L299.04 276.75L287.05 280.73" stroke="#263238" stroke-linecap="round" stroke-linejoin="round"/>
<path d="M296.46 265.45L286.22 269.36L290.59 280.47L300.3 278.27L296.46 265.45Z" fill="#FFF0D9" stroke="#263238" stroke-linecap="round" stroke-linejoin="round"/>
<path d="M389.9 200.93C389.9 200.93 383.15 198.2 374.52 203.05C369.24 206.05 342.91 247.14 343.88 245.26L289.88 266.35L295.41 281.82C295.41 281.82 352.14 267.45 356.73 263.96C361.32 260.47 385.4 234.96 390.82 213.57" fill="#999999"/>
<path d="M389.9 200.93C389.9 200.93 383.15 198.2 374.52 203.05C369.24 206.05 342.91 247.14 343.88 245.26L289.88 266.35L295.41 281.82C295.41 281.82 352.14 267.45 356.73 263.96C361.32 260.47 385.4 234.96 390.82 213.57" stroke="#263238" stroke-linecap="round" stroke-linejoin="round"/>
<path d="M331.88 305.37C331.88 305.37 348.17 314.37 356.77 322.52" stroke="#263238" stroke-linecap="round" stroke-linejoin="round"/>
<path d="M377.11 283C376.98 283.22 376.45 292 381.73 295.67" stroke="#263238" stroke-linecap="round" stroke-linejoin="round"/>
<path d="M381.73 280.73C381.73 280.73 384.63 282.43 382.73 308.27C380.83 334.11 380 370.52 380 370.52C380.64 372.78 381.805 374.856 383.4 376.58C385.96 379.22 427.1 419.37 427.1 419.37" stroke="#263238" stroke-linecap="round" stroke-linejoin="round"/>
<path d="M344.33 314C344.33 314 331 316.5 320.33 314.92" stroke="#263238" stroke-linecap="round" stroke-linejoin="round"/>
<path d="M340.39 315.39C340.39 315.39 287.84 358.91 277.29 362.6" stroke="#263238" stroke-linecap="round" stroke-linejoin="round"/>
<path d="M281.16 360.65L245.9 420.63" stroke="#263238" stroke-linecap="round" stroke-linejoin="round"/>
<path d="M344 283.9C344 283.9 341.77 296.67 340.38 298.78C338.99 300.89 342.19 308.27 342.19 308.27" stroke="#263238" stroke-linecap="round" stroke-linejoin="round"/>
<path d="M340.39 283.9C340.39 283.9 338.74 291.66 338.21 293.51C337.68 295.36 340.39 296.09 340.39 296.09" stroke="#263238" stroke-linecap="round" stroke-linejoin="round"/>
<path d="M335 230.21C335 230.21 333.21 241.29 333.74 246.56Z" fill="#BFBFBF"/>
<path d="M335 230.21C335 230.21 333.21 241.29 333.74 246.56" stroke="#263238" stroke-linecap="round" stroke-linejoin="round"/>
<path d="M381.73 225.73C381.73 225.73 372.46 232.58 364.17 232.32" stroke="#263238" stroke-linecap="round" stroke-linejoin="round"/>
<path d="M343.88 245.26C343.88 245.26 347.64 248.14 349.88 246.56" stroke="#263238" stroke-linecap="round" stroke-linejoin="round"/>
<path d="M377.06 247.93C377.06 247.93 371.97 250.78 370.91 253.68" stroke="#263238" stroke-linecap="round" stroke-linejoin="round"/>
<path d="M368.24 163.42C368.24 163.42 361.86 170.15 353.87 172.34C353.625 169.489 353.198 166.656 352.59 163.86C352.59 163.86 354.25 162.86 356.7 161.53L368.24 163.42Z" fill="#263238"/>
<path d="M370.3 164.92C363.85 168.5 356.54 169.76 349.81 166.63C347.42 165.53 346.26 151.18 349.81 138.51C355.52 118.04 372.07 117.36 385.4 129.51C392.45 135.95 388.12 148.75 379.29 157.9" fill="white"/>
<path d="M370.3 164.92C363.85 168.5 356.54 169.76 349.81 166.63C347.42 165.53 346.26 151.18 349.81 138.51C355.52 118.04 372.07 117.36 385.4 129.51C392.45 135.95 388.12 148.75 379.29 157.9" stroke="#263238" stroke-linecap="round" stroke-linejoin="round"/>
<path d="M360.1 139.78C361.836 139.64 363.57 140.07 365.039 141.005C366.508 141.94 367.632 143.328 368.24 144.96" stroke="#263238" stroke-linecap="round" stroke-linejoin="round"/>
<path d="M354.1 137.2C354.1 137.2 353.24 134.72 351.1 134.67" stroke="#263238" stroke-linecap="round" stroke-linejoin="round"/>
<path d="M350.83 151.58C350.83 151.58 348.28 148.93 349.08 147.43C349.88 145.93 350.69 146.82 352.59 145.49C353.166 145.093 353.652 144.581 354.017 143.985C354.382 143.389 354.618 142.723 354.71 142.03" fill="white"/>
<path d="M350.83 151.58C350.83 151.58 348.28 148.93 349.08 147.43C349.88 145.93 350.69 146.82 352.59 145.49C353.166 145.093 353.652 144.581 354.017 143.985C354.382 143.389 354.618 142.723 354.71 142.03" stroke="#263238" stroke-linecap="round" stroke-linejoin="round"/>
<path d="M362.71 147.28C362.45 147.94 361.94 148.36 361.57 148.22C361.2 148.08 361.1 147.42 361.36 146.75C361.62 146.08 362.13 145.67 362.5 145.82C362.87 145.97 363 146.62 362.71 147.28Z" fill="#263238"/>
<path d="M353.27 142.61C353.01 143.28 352.5 143.7 352.13 143.55C351.76 143.4 351.66 142.75 351.92 142.09C352.18 141.43 352.69 141.01 353.06 141.15C353.43 141.29 353.53 142 353.27 142.61Z" fill="#263238"/>
<path d="M349.91 154.74C349.91 154.74 355.17 157.16 359.09 157.21C359.09 157.21 357.09 161.45 353.67 161.07C350.25 160.69 351 156 351 156" stroke="#263238" stroke-linecap="round" stroke-linejoin="round"/>
<path d="M374.27 133C374.27 133 368.63 128.47 356.27 126.39C356.27 126.39 356.33 118.83 359.12 116.1C361.91 113.37 364.2 119 364.2 119C364.2 119 371.2 117.06 383.63 125.59C396.06 134.12 390.1 153.86 374.39 162.25L374.3 158.91C374.3 158.91 374.46 151.99 371.88 150.7C371.88 150.7 373.81 145.7 371.72 142.01C369.63 138.32 374.27 133 374.27 133Z" fill="#263238"/>
<path d="M371.85 153.13C371.85 153.13 376.36 147.66 380.06 149.59C383.76 151.52 375.55 163.26 371.85 161.1" fill="white"/>
<path d="M371.85 153.13C371.85 153.13 376.36 147.66 380.06 149.59C383.76 151.52 375.55 163.26 371.85 161.1" stroke="#263238" stroke-linecap="round" stroke-linejoin="round"/>
<path d="M139.722 122L136.95 117.104H135.762V122H133.242V109.436H137.958C138.93 109.436 139.758 109.61 140.442 109.958C141.126 110.294 141.636 110.756 141.972 111.344C142.32 111.92 142.494 112.568 142.494 113.288C142.494 114.116 142.254 114.866 141.774 115.538C141.294 116.198 140.58 116.654 139.632 116.906L142.638 122H139.722ZM135.762 115.214H137.868C138.552 115.214 139.062 115.052 139.398 114.728C139.734 114.392 139.902 113.93 139.902 113.342C139.902 112.766 139.734 112.322 139.398 112.01C139.062 111.686 138.552 111.524 137.868 111.524H135.762V115.214ZM147.293 111.47V114.62H151.523V116.618H147.293V119.948H152.063V122H144.773V109.418H152.063V111.47H147.293ZM158.691 122.126C157.815 122.126 157.023 121.976 156.315 121.676C155.619 121.376 155.067 120.944 154.659 120.38C154.251 119.816 154.041 119.15 154.029 118.382H156.729C156.765 118.898 156.945 119.306 157.269 119.606C157.605 119.906 158.061 120.056 158.637 120.056C159.225 120.056 159.687 119.918 160.023 119.642C160.359 119.354 160.527 118.982 160.527 118.526C160.527 118.154 160.413 117.848 160.185 117.608C159.957 117.368 159.669 117.182 159.321 117.05C158.985 116.906 158.517 116.75 157.917 116.582C157.101 116.342 156.435 116.108 155.919 115.88C155.415 115.64 154.977 115.286 154.605 114.818C154.245 114.338 154.065 113.702 154.065 112.91C154.065 112.166 154.251 111.518 154.623 110.966C154.995 110.414 155.517 109.994 156.189 109.706C156.861 109.406 157.629 109.256 158.493 109.256C159.789 109.256 160.839 109.574 161.643 110.21C162.459 110.834 162.909 111.71 162.993 112.838H160.221C160.197 112.406 160.011 112.052 159.663 111.776C159.327 111.488 158.877 111.344 158.313 111.344C157.821 111.344 157.425 111.47 157.125 111.722C156.837 111.974 156.693 112.34 156.693 112.82C156.693 113.156 156.801 113.438 157.017 113.666C157.245 113.882 157.521 114.062 157.845 114.206C158.181 114.338 158.649 114.494 159.249 114.674C160.065 114.914 160.731 115.154 161.247 115.394C161.763 115.634 162.207 115.994 162.579 116.474C162.951 116.954 163.137 117.584 163.137 118.364C163.137 119.036 162.963 119.66 162.615 120.236C162.267 120.812 161.757 121.274 161.085 121.622C160.413 121.958 159.615 122.126 158.691 122.126ZM167.806 109.436V117.212C167.806 118.064 168.028 118.718 168.472 119.174C168.916 119.618 169.54 119.84 170.344 119.84C171.16 119.84 171.79 119.618 172.234 119.174C172.678 118.718 172.9 118.064 172.9 117.212V109.436H175.438V117.194C175.438 118.262 175.204 119.168 174.736 119.912C174.28 120.644 173.662 121.196 172.882 121.568C172.114 121.94 171.256 122.126 170.308 122.126C169.372 122.126 168.52 121.94 167.752 121.568C166.996 121.196 166.396 120.644 165.952 119.912C165.508 119.168 165.286 118.262 165.286 117.194V109.436H167.806ZM191.571 109.436V122H189.051V113.828L185.685 122H183.777L180.393 113.828V122H177.873V109.436H180.735L184.731 118.778L188.727 109.436H191.571ZM196.582 111.47V114.62H200.812V116.618H196.582V119.948H201.352V122H194.062V109.418H201.352V111.47H196.582Z" fill="#263238"/>
</svg>
