<svg width="500" height="438" viewBox="0 0 500 438" fill="none" xmlns="http://www.w3.org/2000/svg">
<path d="M400.7 394.59C425.41 372.37 443.77 342.02 457.63 312.59C478.22 268.87 489.18 214.32 460.44 171.81C443.86 147.29 417.96 131.81 389.21 125.98C361.55 120.38 334.65 121.59 310.86 104.06C286.8 86.31 265.86 64.17 244.32 43.56C188.94 -9.43999 88.32 5.76001 41.59 77.12C-5.13999 148.48 7.59001 241.18 52.59 284.18C93 322.81 149.38 330.36 194 360.56C216.11 375.56 231.57 397.63 255 410.8C282.25 426.11 315.66 432.39 346.36 424.57C367.26 419.24 385.22 408.51 400.7 394.59Z" fill="#FFF0D9"/>
<path opacity="0.7" d="M400.7 394.59C425.41 372.37 443.77 342.02 457.63 312.59C478.22 268.87 489.18 214.32 460.44 171.81C443.86 147.29 417.96 131.81 389.21 125.98C361.55 120.38 334.65 121.59 310.86 104.06C286.8 86.31 265.86 64.17 244.32 43.56C188.94 -9.43999 88.32 5.76001 41.59 77.12C-5.13999 148.48 7.59001 241.18 52.59 284.18C93 322.81 149.38 330.36 194 360.56C216.11 375.56 231.57 397.63 255 410.8C282.25 426.11 315.66 432.39 346.36 424.57C367.26 419.24 385.22 408.51 400.7 394.59Z" fill="white"/>
<path d="M446.76 406.85L442.89 370.52" stroke="#263238" stroke-width="0.985332" stroke-linecap="round" stroke-linejoin="round"/>
<path d="M442.87 371.54C442.87 371.54 435.92 366.13 435.92 353.76C435.92 341.39 445.19 331.35 445.19 331.35C445.19 331.35 455.24 343.72 452.92 356.08C450.6 368.44 442.87 371.54 442.87 371.54Z" fill="#FFF0D9" stroke="#263238" stroke-width="0.985332" stroke-linecap="round" stroke-linejoin="round"/>
<path d="M442.89 370.52L444.66 343.22" stroke="#263238" stroke-width="0.985332" stroke-linecap="round" stroke-linejoin="round"/>
<path d="M450.33 404.17C453.704 395.474 457.822 387.087 462.64 379.1" stroke="#263238" stroke-width="0.985332" stroke-linecap="round" stroke-linejoin="round"/>
<path d="M459 385.67C459 385.67 455.14 377.74 460.6 366.67C466.06 355.6 478.82 350.67 478.82 350.67C478.82 350.67 482.37 366.2 474.82 376.27C467.27 386.34 459 385.67 459 385.67Z" fill="#FFF0D9" stroke="#263238" stroke-width="0.985332" stroke-linecap="round" stroke-linejoin="round"/>
<path d="M459 385.67L473.07 362.54" stroke="#263238" stroke-width="0.985332" stroke-linecap="round" stroke-linejoin="round"/>
<path d="M440.49 407.41C438.393 400.425 435.543 393.689 431.99 387.32L426.58 378" stroke="#263238" stroke-width="0.985332" stroke-linecap="round" stroke-linejoin="round"/>
<path d="M430.93 385.21C426.661 386.521 422.13 386.73 417.758 385.817C413.387 384.904 409.318 382.9 405.93 379.99C393.93 369.91 394.6 349.34 394.6 349.34C394.6 349.34 417.86 346.02 427.25 359.2C429.972 362.89 431.734 367.2 432.376 371.74C433.018 376.281 432.522 380.909 430.93 385.21V385.21Z" fill="#FFF0D9" stroke="#263238" stroke-width="0.985332" stroke-linecap="round" stroke-linejoin="round"/>
<path d="M430.93 385.21L403.36 356.48" stroke="#263238" stroke-width="0.985332" stroke-linecap="round" stroke-linejoin="round"/>
<path d="M459.48 399.07H430.05V427.93H459.48V399.07Z" fill="#263238" stroke="#263238" stroke-width="0.985332" stroke-linecap="round" stroke-linejoin="round"/>
<path d="M269.79 250.86C270.64 249.242 271.917 247.888 273.483 246.944C275.048 246.001 276.842 245.505 278.67 245.51H364.22C364.22 245.51 370.4 245.51 368.55 257.26C366.7 269.01 341.34 340.75 335.15 362.39C328.96 384.03 327.73 429.8 327.73 429.8H225.07C225.07 429.8 233.3 320.53 269.79 250.86Z" fill="white" stroke="#263238" stroke-width="0.985332" stroke-linecap="round" stroke-linejoin="round"/>
<path d="M349.38 265.92C340.73 286.1 322.38 365.92 319.46 429.8H327.73C327.73 429.8 329 384 335.15 362.39C341.3 340.78 366.69 269.01 368.55 257.26C370.41 245.51 364.22 245.51 364.22 245.51C364.22 245.51 356.31 249.74 349.38 265.92Z" fill="#263238" stroke="#263238" stroke-width="0.985332" stroke-linecap="round" stroke-linejoin="round"/>
<path d="M186.7 247.13C186.7 247.13 171 245.22 160.63 234.32C150.26 223.42 183.17 184.55 200.74 175.39C218.31 166.23 225.55 168.74 244.39 182.63C263.23 196.52 281.62 218.81 281.39 233.76C281.16 248.71 273.02 255.86 284.39 263.23C295.76 270.6 327.94 291.53 332.64 305.91C337.34 320.29 329.19 338.18 310.32 347.91C291.45 357.64 260.49 357.19 230.67 347.55C200.85 337.91 194.36 307.41 198.2 295C202.04 282.59 212.2 274.06 209.14 264.62C206.08 255.18 186.7 247.13 186.7 247.13Z" fill="#263238" stroke="#263238" stroke-width="0.985332" stroke-linecap="round" stroke-linejoin="round"/>
<path d="M200.16 290C200.16 290 183.92 287.74 176.42 292.59C168.92 297.44 131.86 360.78 131.86 360.78L111.39 333.23L93.64 341.2C93.64 341.2 101.96 373.4 111.64 389.42C121.32 405.44 126.84 407.06 130.16 406.53C140.04 404.96 168.66 371.85 168.66 371.85L179.06 406.45L172 431.6H303.5L287.55 405C287.55 405 308.36 309 303.06 298.83C297.76 288.66 266.88 290 257.17 290H229.37C225.157 290.835 220.875 291.277 216.58 291.32C211.088 291.16 205.607 290.72 200.16 290V290Z" fill="#FFF0D9"/>
<path d="M288 293.24L288.27 293.35L285.75 299.77L285.47 299.66L288 293.24ZM287.31 300.38L287.58 300.49L290.11 294.07L289.83 293.96L287.31 300.38ZM298.78 320.81L298.49 320.73L297.38 324.68H297.69L298.78 320.81ZM300.68 321.35L300.39 321.27L299.39 324.68H299.69L300.68 321.35ZM288.68 321.57L289.62 324.68H289.93L288.93 321.48L288.68 321.57ZM290.86 320.92L290.57 321L291.68 324.68H291.99L290.86 320.92ZM298.91 306.23L302.34 300.23L302.09 300.08L298.66 306.08L298.91 306.23ZM300.63 307.23L303.84 301.62C303.84 301.45 303.84 301.3 303.78 301.14L300.37 307.09L300.63 307.23ZM302.88 315.76L303.45 315.01L303.51 314.46L302.64 315.58L302.88 315.76ZM294.39 309.67L299.17 314.67L299.38 314.47L294.6 309.47L294.39 309.67ZM292.88 311L297.65 316L297.87 315.8L293.09 310.8L292.88 311ZM287.61 311L287.69 310.71L284 309.8V310.1L287.61 311ZM283.95 308L288.1 309.05L288.17 308.76L284 307.76L283.95 308ZM288.58 316.93L288.49 316.65L284 318.21V318.52L288.58 316.93ZM287.87 314.77L283.95 316.07V316.38L287.95 315.05L287.87 314.77ZM285.7 370.64L288.22 364.22L287.95 364.11L285.42 370.53L285.7 370.64ZM289.78 364.83L287.26 371.25L287.53 371.36L290.06 364.94L289.78 364.83ZM289.65 394.93L288.88 392.36L288.59 392.44L289.53 395.54L289.65 394.93ZM294.65 351.75L294.37 351.85L296.71 358.34H296.77L296.86 357.89L294.65 351.75ZM296.22 351.18L297.45 354.57C297.45 354.38 297.52 354.19 297.55 353.99L296.5 351.08L296.22 351.18ZM300.6 334.28L300.76 334.81L300.85 334.21L300.6 334.28ZM294.02 333.89L293.62 340.77H293.91L294.31 333.88L294.02 333.89ZM295.59 340.89H295.88L296.28 334H295.99L295.59 340.89ZM287.18 333.59L287.32 333.33L283.92 331.5V331.84L287.18 333.59ZM283.92 329.59L288.11 331.84L288.25 331.58L284 329.33L283.92 329.59ZM286.54 340L286.35 339.78L284 342V342.39L286.54 340ZM285.25 338.51L285.06 338.28L283.92 339.28V339.67L285.25 338.51ZM284 350.34V350.65L290.22 348.22L290.11 347.95L284 350.34ZM284 348.22V348.54L289.5 346.39L289.39 346.11L284 348.22ZM287.67 360.74L287.74 360.45L284 359.61V359.91L287.67 360.74ZM288.1 358.82L288.17 358.53L284 357.59V357.89L288.1 358.82ZM287.61 382L287.69 381.72L283.95 380.77V381.08L287.61 382ZM284 379L288.15 380.06L288.22 379.77L284 378.71V379ZM288.63 387.93L288.54 387.65L284 389.15V389.47L288.63 387.93ZM288.01 386.06L287.92 385.78L284 387.08V387.39L288.01 386.06ZM296.9 327.44L297.69 324.67H297.38L296.62 327.36L296.9 327.44ZM299.73 324.67H299.43L298.52 327.89L298.8 327.98L299.73 324.67ZM290.63 328.16L290.92 328.08L289.92 324.67H289.61L290.63 328.16ZM292.8 327.51L291.95 324.67H291.64L292.52 327.6L292.8 327.51ZM294.45 422.86L296.79 429.34L297.07 429.24L294.73 422.76L294.45 422.86ZM298.92 428.57L296.58 422.09L296.3 422.19L298.65 428.67L298.92 428.57ZM302.23 430.17L301.94 430.09L301.52 431.59H301.83L302.23 430.17ZM284 402.85L287.26 404.6L287.4 404.34L284 402.51V402.85ZM284 400.61L288 402.8L288.06 402.5L284 400.28V400.61ZM286.57 411L286.38 410.77L284 412.9V413.28L286.57 411ZM285.28 409.5L285.09 409.28L283.95 410.28V410.67L285.28 409.5ZM290.06 418.86L284 421.28V421.6L290.22 419.16L290.06 418.86ZM283.95 419.45L289.45 417.3L289.34 417.03L283.95 419.13V419.45ZM283.95 430.52V430.83L287.26 431.57H287.64L287.69 431.37L283.95 430.52ZM288.05 429.73L288.12 429.44L283.95 428.5V428.81L288.05 429.73ZM214.48 299.63L214.75 299.74L217.28 293.32L217 293.21L214.48 299.63ZM216.31 300.35L216.59 300.46L219.11 294.04L218.84 293.93L216.31 300.35ZM280.93 309.3L283.93 310.07V309.77L280.98 309.02L280.93 309.3ZM281.49 307.11L281.41 307.39L283.95 308.04V307.73L281.49 307.11ZM284 318.52V318.21L282 318.88L282.09 319.16L284 318.52ZM281.32 317L281.41 317.28L283.95 316.44V316.13L281.32 317ZM276 324.68H276.34L277.64 322.42L277.39 322.27L276 324.68ZM278.28 324.68H278.62L279.35 323.4L279.1 323.25L278.28 324.68ZM263.41 321.92L263.18 322.11L265.29 324.68H265.67L263.41 321.92ZM264.71 320.86L267.84 324.68H268.22L264.94 320.68L264.71 320.86ZM257.25 324.23L256.98 324.33L257.1 324.68H257.42L257.25 324.23ZM258.83 323.66L259.2 324.66H259.51L259.11 323.54L258.83 323.66ZM248.01 324.66L248.86 321.31L248.57 321.24L247.7 324.66H248.01ZM250.48 321.72L249.73 324.66H250L250.73 321.8L250.48 321.72ZM227.81 320.79L227.52 320.71L226.4 324.66H226.71L227.81 320.79ZM229.7 321.33L229.42 321.25L228.42 324.66H228.73L229.7 321.33ZM217.7 321.55L218.64 324.66H218.95L217.95 321.46L217.7 321.55ZM219.87 320.9L219.59 320.98L220.7 324.66H221L219.87 320.9ZM227.93 306.21L231.36 300.21L231.1 300.06L227.67 306.06L227.93 306.21ZM229.39 307.05L229.64 307.19L233.07 301.19L232.81 301.04L229.39 307.05ZM268.52 311.45L274.87 314.14L274.98 313.87L268.63 311.18L268.52 311.45ZM267.75 313.26L274.1 315.95L274.21 315.68L267.81 313L267.75 313.26ZM273.1 302.9L273.38 302.98L275.26 296.35L274.97 296.26L273.1 302.9ZM274.99 303.44L275.28 303.52L277.15 296.88L276.87 296.8L274.99 303.44ZM264.67 291.1L266.67 297.7L266.95 297.62L265 291L264.67 291.1ZM266.55 290.53L268.55 297.13L268.83 297.05L266.83 290.45L266.55 290.53ZM244.76 318.8L242.76 312.2L242.48 312.28L244.48 318.89L244.76 318.8ZM246.65 318.23L244.65 311.63L244.36 311.71L246.36 318.32L246.65 318.23ZM254.45 314.41L261.28 313.41V313.12L254.45 314.12V314.41ZM254.73 316.36L261.56 315.36V315.07L254.73 316.07V316.36ZM259.73 307.95L260.02 308.02L261.56 301.3L261.27 301.23L259.73 307.95ZM263.19 301.67L261.65 308.39L261.94 308.46L263.48 301.74L263.19 301.67ZM239 304.12L239.25 304.28L242.94 298.45L242.69 298.3L239 304.12ZM244.61 299.51L244.36 299.35L240.67 305.18L240.92 305.34L244.61 299.51ZM238.2 292.8L244.52 290.04V289.97H243.98L238.11 292.53L238.2 292.8ZM238.87 294.33L238.99 294.6L245.31 291.85L245.19 291.58L238.87 294.33ZM232.87 289.97H232.56L231 295.39L231.29 295.47L232.87 289.97ZM229.42 294.97L230.82 289.97H230.51L229.13 294.85L229.42 294.97ZM256.48 292.09L255.8 290H255.49L256.14 292.16L256.48 292.09ZM254.31 292.74L254.6 292.66L253.8 290.01H253.49L254.31 292.74ZM231.67 315.6L231.9 315.78L236.1 310.31L235.86 310.13L231.67 315.6ZM233.23 316.8L233.47 316.98L237.66 311.5L237.43 311.32L233.23 316.8ZM223.41 309.69L228.19 314.69L228.41 314.49L223.63 309.49L223.41 309.69ZM221.93 311L226.71 316L226.92 315.8L222.15 310.8L221.93 311ZM248.11 302.16L247.99 302.43L254.34 305.13L254.46 304.85L248.11 302.16ZM248.76 300.62L255.11 303.31L255.23 303.04L248.88 300.35L248.76 300.62ZM216.67 311L216.74 310.71L213 309.8V310.1L216.67 311ZM213.01 308L217.15 309.05L217.23 308.76L213 307.76L213.01 308ZM217.64 316.93L217.54 316.65L213 318.21V318.52L217.64 316.93ZM216.92 314.77L213.01 316.07V316.38L217.01 315.05L216.92 314.77ZM217 364.11L214.48 370.53L214.75 370.64L217.28 364.22L217 364.11ZM218.84 364.83L216.31 371.25L216.59 371.36L219.11 364.94L218.84 364.83ZM281.14 330.32L283.95 331.84V331.5L281.28 330.06L281.14 330.32ZM282.21 328.32L282.07 328.57L283.95 329.57V329.23L282.21 328.32ZM284 342L281.21 344.42L281.4 344.64L284 342.39V342ZM280.11 343.15L284 339.79V339.4L279.92 342.92L280.11 343.15ZM283.69 350.51L283.79 350.79L284 350.7V350.39L283.69 350.51ZM282.97 348.68L283.07 348.95L284 348.59V348.27L282.97 348.68ZM283.97 359.68L280.97 359L280.9 359.29L283.96 359.98L283.97 359.68ZM283.97 357.68L281.41 357.1L281.35 357.39L283.97 357.98V357.68ZM283.97 380.83L281 380L280.93 380.29L283.93 381.06L283.97 380.83ZM281.51 378.17L281.43 378.46L284 379V378.7L281.51 378.17ZM284 389.47V389.15L282 389.82L282.09 390.1L284 389.47ZM284 387.39V387.08L281.37 387.95L281.46 388.23L284 387.39ZM243.4 328.18L237.05 325.48L236.94 325.75L243.29 328.45L243.4 328.18ZM236.17 327.57L242.52 330.26L242.63 329.99L236.28 327.3L236.17 327.57ZM277.62 393.36L277.37 393.22L276 395.63H276.34L277.62 393.36ZM279.33 394.36L279.08 394.21L278.26 395.65H278.6L279.33 394.36ZM263.16 393.07L265.27 395.65H265.65L263.39 392.88L263.16 393.07ZM264.69 391.82L267.82 395.65H268.2L264.92 391.65L264.69 391.82ZM257.23 395.2L256.96 395.3L257.08 395.65H257.4L257.23 395.2ZM258.81 394.63L259.18 395.63H259.49L259.09 394.51L258.81 394.63ZM248.81 392.3L248.52 392.22L247.65 395.65H248L248.81 392.3ZM250.43 392.71L249.68 395.65H250L250.73 392.78L250.43 392.71ZM227.76 391.77L227.47 391.69L226.35 395.69H226.66L227.76 391.77ZM229.65 392.31L229.37 392.23L228.37 395.65H228.68L229.65 392.31ZM217.65 392.53L218.59 395.65H218.9L217.9 392.45L217.65 392.53ZM219.54 391.97L220.65 395.65H220.95L219.82 391.88L219.54 391.97ZM231.05 371.07L227.62 377.07L227.88 377.22L231.31 371.22L231.05 371.07ZM233.05 372.19L232.79 372.04L229.37 378.04L229.62 378.19L233.05 372.19ZM260.94 339.33L256.54 334L256.32 334.19L260.68 339.53L260.94 339.33ZM259.42 340.58L255 335.22L254.77 335.41L259.14 340.75L259.42 340.58ZM248.61 337.66L250.95 344.14L251.23 344.04L248.89 337.56L248.61 337.66ZM250.47 336.99L252.81 343.47L253.08 343.37L250.74 336.89L250.47 336.99ZM274.96 384.85L268.61 382.16L268.5 382.43L274.85 385.12L274.96 384.85ZM274.19 386.67L267.84 383.97L267.73 384.25L274.08 386.94L274.19 386.67ZM274.95 367.25L273.08 373.89L273.36 373.97L275.24 367.33L274.95 367.25ZM277.13 367.87L276.85 367.79L274.97 374.42L275.26 374.5L277.13 367.87ZM266.96 368.58L264.96 361.98L264.68 362.06L266.68 368.67L266.96 368.58ZM268.85 368.01L266.85 361.41L266.56 361.49L268.56 368.1L268.85 368.01ZM248.85 350.74L245.42 356.74L245.67 356.88L249.1 350.88L248.85 350.74ZM247.39 349.91L247.13 349.76L243.71 355.76L243.96 355.9L247.39 349.91ZM235.74 355.36L231.37 350L231.14 350.19L235.51 355.53L235.74 355.36ZM237.26 354.11L232.9 348.77L232.67 348.96L237.03 354.3L237.26 354.11ZM223.46 351.94L225.8 358.43L226.08 358.33L223.73 351.84L223.46 351.94ZM225.31 351.27L227.65 357.76L227.93 357.66L225.59 351.17L225.31 351.27ZM273 356.52L273.29 356.59L274.99 349.91L274.7 349.83L273 356.52ZM276.9 350.39L276.61 350.32L274.91 357L275.2 357.07L276.9 350.39ZM265.62 356L259.27 353.31L259.16 353.58L265.51 356.28L265.62 356ZM266.39 354.19L260 351.5L259.89 351.77L266.24 354.46L266.39 354.19ZM244.76 389.75L242.76 383.14L242.48 383.23L244.48 389.83L244.76 389.75ZM246.65 389.18L244.65 382.57L244.36 382.66L246.36 389.26L246.65 389.18ZM261.28 384.39V384.1L254.45 385.1V385.39L261.28 384.39ZM261.56 386.34V386.05L254.73 387.05V387.34L261.56 386.34ZM260 379L261.54 372.28L261.25 372.21L259.71 378.94L260 379ZM261.92 379.44L263.46 372.72L263.17 372.65L261.63 379.38L261.92 379.44ZM242.92 369.44L242.67 369.28L239 375.07L239.25 375.23L242.92 369.44ZM244.59 370.49L244.34 370.33L240.65 376.16L240.9 376.32L244.59 370.49ZM244.5 361.02L244.39 360.75L238.06 363.51L238.18 363.78L244.5 361.02ZM245.29 362.83L245.17 362.56L238.85 365.32L238.97 365.59L245.29 362.83ZM233.14 359.83L232.86 359.74L231 366.33L231.29 366.41L233.14 359.83ZM229.37 365.93L231.24 359.29L230.96 359.21L229.08 365.85L229.37 365.93ZM256.42 363L254.42 356.4L254.13 356.48L256.13 363.09L256.42 363ZM252.27 357L254.27 363.6L254.56 363.52L252.56 356.92L252.27 357ZM242.68 340L237.17 344.16L237.35 344.39L242.86 340.24L242.68 340ZM238.54 346L244.04 341.84L243.87 341.61L238.36 345.76L238.54 346ZM233.78 340.29L231.87 333.66L231.58 333.75L233.5 340.37L233.78 340.29ZM229.69 334.29L231.6 341L231.89 340.92L230 334.27L229.69 334.29ZM223.11 333.9L222.71 340.78H223L223.4 333.89L223.11 333.9ZM224.67 340.9H224.97L225.37 334.01H225.07L224.67 340.9ZM236 381.21L235.76 381.03L231.57 386.51L231.8 386.69L236 381.21ZM237.56 382.41L237.33 382.23L233.13 387.71L233.37 387.89L237.56 382.41ZM223.31 380.59L228.09 385.59L228.31 385.38L223.53 380.38L223.31 380.59ZM221.93 382L226.71 387L226.92 386.8L222.15 381.8L221.93 382ZM272.15 343.59L271.92 343.41L267.58 348.77L267.81 348.96L272.15 343.59ZM270.39 342.17L266.05 347.53L266.28 347.72L270.61 342.35L270.39 342.17ZM271.6 332H271.31L270.53 338.85H270.83L271.6 332ZM269.35 331.74L268.58 338.6H268.87L269.64 331.75L269.35 331.74ZM254.46 375.84L248.11 373.15L247.99 373.42L254.34 376.11L254.46 375.84ZM248.76 371.6L255.11 374.29L255.23 374.02L248.88 371.33L248.76 371.6ZM216.27 333.69L216.41 333.43L213.01 331.6V331.94L216.27 333.69ZM213.01 329.69L217.2 331.94L217.34 331.68L213 329.33L213.01 329.69ZM215.63 340.1L215.43 339.88L213 342V342.39L215.63 340.1ZM214.34 338.61L214.14 338.38L213.01 339.38V339.77L214.34 338.61ZM219.11 347.97L213.01 350.36V350.67L219.22 348.24L219.11 347.97ZM218.5 346.41L218.4 346.13L213 348.22V348.54L218.5 346.41ZM216.68 360.76L216.74 360.47L213.01 359.63V359.93L216.68 360.76ZM213 357.89L217.1 358.82L217.17 358.53L213 357.59V357.89ZM216.67 382L216.74 381.72L213.01 380.77V381.08L216.67 382ZM213 379L217.14 380.06L217.22 379.77L213 378.71V379ZM217.63 387.93L217.53 387.65L213 389.15V389.47L217.63 387.93ZM217.01 386.06L216.91 385.78L213 387.08V387.39L217.01 386.06ZM273.93 328.25L274.18 328.39L276.31 324.67H276L273.93 328.25ZM275.64 329.25L275.89 329.39L278.59 324.69H278.25L275.64 329.25ZM267.75 327.25L265.64 324.67H265.26L267.52 327.43L267.75 327.25ZM269.05 326.19L269.28 326L268.19 324.67H267.81L269.05 326.19ZM259.57 330.71L257.39 324.71H257.07L259.29 330.85L259.57 330.71ZM261.14 330.14L261.42 330.04L259.48 324.67H259.17L261.14 330.14ZM246.84 327.93L247.13 328L247.98 324.67H247.67L246.84 327.93ZM248.75 328.42L249.04 328.49L250.04 324.67H249.73L248.75 328.42ZM225.9 327.42L226.68 324.65H226.37L225.61 327.34L225.9 327.42ZM228.73 324.65H228.42L227.51 327.87L227.8 327.96L228.73 324.65ZM219.63 328.14L219.91 328.06L218.91 324.65H218.6L219.63 328.14ZM221.8 327.49L220.94 324.65H220.64L221.51 327.58L221.8 327.49ZM281.27 401.04L281.13 401.3L283.94 402.82V402.48L281.27 401.04ZM282.2 399.31L282.06 399.57L283.94 400.57V400.24L282.2 399.31ZM284 413.28V412.9L281.21 415.31L281.4 415.53L284 413.28ZM284 410.68V410.29L279.92 413.82L280.11 414.04L284 410.68ZM283.69 421.4L283.79 421.68L284 421.6V421.28L283.69 421.4ZM282.97 419.57L283.07 419.85L284 419.48V419.16L282.97 419.57ZM280.97 429.88L280.9 430.17L283.96 430.86V430.55L280.97 429.88ZM283.97 428.53L281.41 427.95L281.35 428.24L283.97 428.84V428.53ZM243.4 399.12L237.05 396.43L236.94 396.7L243.29 399.39L243.4 399.12ZM236.17 398.51L242.52 401.21L242.63 400.93L236.28 398.24L236.17 398.51ZM256.32 405.1L260.68 410.44L260.91 410.25L256.54 404.92L256.32 405.1ZM259.39 411.5L255 406.17L254.77 406.35L259.14 411.69L259.39 411.5ZM251.2 415L248.86 408.51L248.58 408.61L250.92 415.1L251.2 415ZM253.05 414.33L250.71 407.84L250.44 407.94L252.78 414.43L253.05 414.33ZM249.05 421.84L248.8 421.69L245.37 427.69L245.62 427.84L249.05 421.84ZM247.34 420.84L247.08 420.7L243.66 426.7L243.91 426.85L247.34 420.84ZM235.69 426.29L231.37 421L231.14 421.18L235.51 426.52L235.69 426.29ZM237.21 425.04L232.85 419.71L232.62 419.89L236.98 425.23L237.21 425.04ZM226.03 429.26L223.68 422.78L223.41 422.88L225.75 429.36L226.03 429.26ZM227.88 428.59L225.54 422.11L225.26 422.21L227.6 428.69L227.88 428.59ZM274.88 420.86L274.59 420.79L272.89 427.47L273.18 427.54L274.88 420.86ZM276.79 421.34L276.5 421.27L274.8 427.96L275.09 428.03L276.79 421.34ZM265.62 427L259.27 424.31L259.16 424.58L265.51 427.27L265.62 427ZM266.39 425.18L260 422.44L259.89 422.71L266.24 425.41L266.39 425.18ZM232.85 430.69L232.57 431.69H232.88L233.13 430.81L232.85 430.69ZM231.23 430.23L230.95 430.15L230.52 431.65H230.83L231.23 430.23ZM254.15 427.47L255.41 431.65H255.72L254.44 427.38L254.15 427.47ZM252.55 427.95L252.27 428.03L253.35 431.65H253.66L252.55 427.95ZM242.86 411.32L242.68 411.09L237.17 415.24L237.35 415.48L242.86 411.32ZM244.04 412.9L243.87 412.66L238.36 416.81L238.54 417.05L244.04 412.9ZM233.5 411.43L233.78 411.34L231.87 404.72L231.58 404.8L233.5 411.43ZM231.89 411.89L230 405.22L229.72 405.3L231.63 411.92L231.89 411.89ZM223 411.89L223.4 405.01H223.11L222.71 411.9L223 411.89ZM225 412.01L225.4 405.12H225.1L224.7 412L225 412.01ZM272.18 414.59L271.95 414.4L267.61 419.76L267.84 419.95L272.18 414.59ZM270.42 413.16L266.08 418.52L266.31 418.71L270.64 413.35L270.42 413.16ZM271.63 403H271.34L270.56 409.85H270.86L271.63 403ZM269.38 402.75L268.61 409.6H268.9L269.67 402.74L269.38 402.75ZM216.3 404.69L216.44 404.43L213.04 402.6V402.94L216.3 404.69ZM217.37 402.69L213 400.28V400.61L217.19 402.87L217.37 402.69ZM215.63 411L215.43 410.77L213 412.89V413.28L215.63 411ZM214.34 409.5L214.14 409.28L213.01 410.28V410.67L214.34 409.5ZM219.11 418.86L213.01 421.25V421.57L219.22 419.13L219.11 418.86ZM213.01 419.45L218.5 417.3L218.4 417.03L213.01 419.13V419.45ZM213.01 430.52V430.83L216.32 431.57H216.69L216.74 431.37L213.01 430.52ZM217.11 429.73L217.18 429.44L213.01 428.5V428.81L217.11 429.73ZM274.19 399.32L276.32 395.6H276L274 399.17L274.19 399.32ZM278.26 395.6L275.65 400.15L275.9 400.3L278.6 395.6H278.26ZM267.53 398.36L267.76 398.17L265.65 395.6H265.27L267.53 398.36ZM269.06 397.11L269.29 396.92L268.2 395.6H267.82L269.06 397.11ZM259.58 401.63L257.4 395.63H257.08L259.3 401.76L259.58 401.63ZM261.15 401.07L261.43 400.96L259.49 395.6H259.18L261.15 401.07ZM247.15 398.93L248 395.6H247.69L246.86 398.86L247.15 398.93ZM248.77 399.34L249.06 399.41L250.06 395.6H249.75L248.77 399.34ZM225.92 398.34L226.7 395.58H226.39L225.63 398.26L225.92 398.34ZM228.44 395.58L227.53 398.8L227.82 398.88L228.75 395.58H228.44ZM219.65 399.07L219.93 398.98L218.93 395.58H218.62L219.65 399.07ZM221.53 398.5L221.82 398.42L220.96 395.58H220.66L221.53 398.5ZM210 309.33L213 310.1V309.8L210.05 309.05L210 309.33ZM210.56 307.14L210.49 307.42L213.03 308.07V307.76L210.56 307.14ZM213 318.52V318.21L211 318.88L211.1 319.16L213 318.52ZM210.38 317L210.47 317.28L213.01 316.44V316.13L210.38 317ZM205 324.68H205.34L206.64 322.42L206.38 322.27L205 324.68ZM207.27 324.68H207.61L208.35 323.4L208.09 323.25L207.27 324.68ZM192.41 321.92L192.18 322.11L194.29 324.68H194.67L192.41 321.92ZM193.71 320.86L196.83 324.68H197.22L193.94 320.68L193.71 320.86ZM186.25 324.23L185.97 324.33L186.1 324.68H186.41L186.25 324.23ZM187.83 323.66L188.19 324.66H188.51L188.11 323.54L187.83 323.66ZM177 324.66L177.85 321.31L177.57 321.24L176.7 324.66H177ZM179.48 321.72L178.73 324.66H179.04L179.76 321.8L179.48 321.72ZM155.71 324.66L156.8 320.79L156.52 320.71L155.4 324.66H155.71ZM158.71 321.33L158.42 321.25L157.42 324.66H157.73L158.71 321.33ZM197.49 311.45L203.84 314.14L203.96 313.87L197.61 311.18L197.49 311.45ZM196.72 313.26L203.1 316L203.22 315.73L196.87 313L196.72 313.26ZM202.07 302.9L202.36 302.98L204.23 296.35L203.95 296.26L202.07 302.9ZM203.97 303.44L204.25 303.52L206.13 296.88L205.85 296.8L203.97 303.44ZM193.72 291.1L195.72 297.7L196 297.62L194 291L193.72 291.1ZM195.61 290.53L197.61 297.13L197.89 297.05L195.89 290.45L195.61 290.53ZM171.55 312.28L173.55 318.89L173.83 318.8L171.83 312.2L171.55 312.28ZM175.71 318.28L173.71 311.68L173.43 311.76L175.43 318.37L175.71 318.28ZM183.51 314.46L190.34 313.46V313.17L183.51 314.17V314.46ZM183.74 316.12V316.41L190.57 315.41V315.12L183.74 316.12ZM190.6 301.35L190.31 301.28L188.78 308L189.06 308.07L190.6 301.35ZM192.24 301.72L190.7 308.44L190.98 308.51L192.52 301.79L192.24 301.72ZM168 304.12L168.25 304.28L171.94 298.45L171.69 298.3L168 304.12ZM169.67 305.18L169.92 305.34L173.61 299.51L173.36 299.35L169.67 305.18ZM185.45 292.05L184.81 289.92H184.51L185.17 292.09L185.45 292.05ZM183.28 292.7L183.56 292.62L182.85 290.24L182.56 290.3L183.28 292.7ZM160.64 315.56L160.87 315.74L165.06 310.27L164.83 310.09L160.64 315.56ZM166.64 311.46L166.4 311.28L162.21 316.76L162.45 316.94L166.64 311.46ZM177.14 302.17L177.03 302.44L183.38 305.14L183.49 304.86L177.14 302.17ZM177.8 300.63L184.15 303.32L184.26 303.05L177.91 300.36L177.8 300.63ZM146.04 364.18L143.52 370.6L143.79 370.71L146.31 364.29L146.04 364.18ZM147.87 364.9L145.35 371.32L145.62 371.43L148.15 365.01L147.87 364.9ZM210.17 330.39L212.99 331.91V331.57L210.31 330.13L210.17 330.39ZM211.25 328.39L211.11 328.64L212.99 329.64V329.3L211.25 328.39ZM213 342L210.2 344.42L210.4 344.64L213 342.39V342ZM209.11 343.15L213 339.79V339.4L208.92 342.92L209.11 343.15ZM212.68 350.51L212.79 350.79L213 350.7V350.39L212.68 350.51ZM213 348.27L212 348.68L212.11 348.95L213.04 348.59L213 348.27ZM213 359.66L210 358.98L209.94 359.27L213 359.96V359.66ZM210.44 357.06L210.37 357.35L213 357.94V357.64L210.44 357.06ZM213 380.74L210.05 379.99L209.97 380.28L212.97 381.05L213 380.74ZM210.53 378.08L210.46 378.37L213 379V378.7L210.53 378.08ZM213 389.47V389.15L211 389.82L211.1 390.1L213 389.47ZM213 387.39V387.08L210.37 387.95L210.46 388.23L213 387.39ZM166 325.75L172.35 328.45L172.47 328.18L166.12 325.48L166 325.75ZM165.23 327.57L171.58 330.26L171.7 329.99L165.35 327.3L165.23 327.57ZM206.69 393.36L206.43 393.22L205 395.63H205.34L206.69 393.36ZM208.4 394.36L208.14 394.21L207.32 395.65H207.66L208.4 394.36ZM192.23 393.07L194.34 395.65H194.72L192.46 392.88L192.23 393.07ZM193.76 391.82L196.88 395.65H197.27L193.99 391.65L193.76 391.82ZM186.3 395.2L186.02 395.3L186.15 395.65H186.46L186.3 395.2ZM187.88 394.63L188.24 395.63H188.56L188.16 394.51L187.88 394.63ZM176.75 395.63H177.05L177.9 392.28L177.62 392.2L176.75 395.63ZM179.53 392.69L178.78 395.63H179.09L179.81 392.76L179.53 392.69ZM147 392.43L146.72 392.51L147.27 394.33L147.51 394.11L147 392.43ZM148.89 391.86L148.6 391.95L148.87 392.81L149.1 392.58L148.89 391.86ZM160.38 371.19L160.12 371.05L156.69 377.05L156.95 377.2L160.38 371.19ZM158.66 378.19L162.09 372.19L161.83 372.04L158.4 378.04L158.66 378.19ZM190 339.31L185.6 334L185.37 334.19L189.74 339.53L190 339.31ZM188.47 340.56L184.1 335.22L183.88 335.41L188.24 340.75L188.47 340.56ZM177.67 337.64L180.01 344.12L180.29 344.02L177.95 337.54L177.67 337.64ZM179.52 336.97L181.86 343.45L182.14 343.35L179.8 336.87L179.52 336.97ZM204 384.83L197.65 382.14L197.53 382.41L203.88 385.1L204 384.83ZM203.23 386.65L196.88 383.95L196.76 384.23L203.11 386.92L203.23 386.65ZM203.99 367.23L202.11 373.87L202.4 373.95L204.27 367.31L203.99 367.23ZM206.17 367.85L205.89 367.77L204 374.4L204.28 374.48L206.17 367.85ZM196 368.56L194 361.96L193.72 362.04L195.72 368.65L196 368.56ZM197.89 367.99L195.89 361.39L195.61 361.47L197.61 368.08L197.89 367.99ZM177.89 350.72L174.46 356.72L174.72 356.86L178.15 350.86L177.89 350.72ZM176.18 349.72L172.75 355.72L173.01 355.86L176.44 349.86L176.18 349.72ZM160.18 350.17L164.55 355.51L164.77 355.32L160.43 350L160.18 350.17ZM161.7 348.92L166.07 354.26L166.3 354.07L162 348.75L161.7 348.92ZM152.49 351.92L154.83 358.41L155.11 358.31L152.77 351.82L152.49 351.92ZM154.35 351.25L156.69 357.74L156.96 357.64L154.62 351.15L154.35 351.25ZM202 356.52L202.29 356.59L203.98 349.91L203.7 349.83L202 356.52ZM205.9 350.39L205.61 350.32L203.91 357L204.2 357.07L205.9 350.39ZM194.68 356L188.33 353.31L188.21 353.58L194.56 356.28L194.68 356ZM195.45 354.19L189.1 351.5L188.98 351.77L195.33 354.46L195.45 354.19ZM173.45 382.66L175.45 389.26L175.73 389.18L173.73 382.57L173.45 382.66ZM190.35 384.39V384.1L183.52 385.1V385.39L190.35 384.39ZM190.62 386.34V386.05L183.79 387.05V387.34L190.62 386.34ZM189.06 379L190.6 372.28L190.31 372.21L188.78 378.94L189.06 379ZM190.98 379.44L192.52 372.72L192.24 372.65L190.7 379.38L190.98 379.44ZM171.72 369.28L169.12 373.39L169.23 373.77L172 369.4L171.72 369.28ZM173.39 370.33L169.87 375.89L169.98 376.26L173.64 370.49L173.39 370.33ZM167.11 363.51L167.23 363.78L173.55 361.02L173.43 360.75L167.11 363.51ZM174.34 362.83L174.22 362.56L167.9 365.32L168.01 365.59L174.34 362.83ZM162.19 359.83L161.9 359.74L160 366.33L160.28 366.41L162.19 359.83ZM158.41 365.93L160.29 359.29L160.01 359.21L158.13 365.85L158.41 365.93ZM185.48 363L183.48 356.4L183.2 356.48L185.2 363.09L185.48 363ZM181.32 357L183.32 363.6L183.6 363.52L181.6 356.92L181.32 357ZM171.73 340L166.23 344.16L166.41 344.39L171.91 340.24L171.73 340ZM167.41 345.73L167.59 345.97L173.1 341.81L172.92 341.58L167.41 345.73ZM160.64 333.73L162.55 340.35L162.84 340.27L160.92 333.64L160.64 333.73ZM158.75 334.27L160.66 340.9L160.94 340.82L159 334.27H158.75ZM151.75 340.76H152.05L152.45 333.87H152.15L151.75 340.76ZM154.41 334.01H154.12L153.72 340.9H154.01L154.41 334.01ZM156.83 384.7L152.61 380.31L152.4 380.51L156.63 384.91L156.83 384.7ZM151.19 381.7L151 382L155.28 386.45L155.48 386.24L151.19 381.7ZM201.19 343.5L200.96 343.32L196.63 348.68L196.86 348.87L201.19 343.5ZM199.43 342.08L195.09 347.44L195.32 347.63L199.66 342.26L199.43 342.08ZM200.66 332H200.36L199.59 338.85H199.88L200.66 332ZM198.4 331.74L197.63 338.6H197.93L198.7 331.75L198.4 331.74ZM183.51 375.84L177.16 373.15L177.05 373.42L183.4 376.11L183.51 375.84ZM184.28 374.02L177.93 371.33L177.82 371.6L184.17 374.29L184.28 374.02ZM144.68 340.11L144.49 339.89L144.26 340.09L143.76 340.91L144.68 340.11ZM148.17 347.98L142.07 350.37V350.68L148.28 348.25L148.17 347.98ZM147.56 346.42L147.45 346.14L142.07 348.25V348.57L147.56 346.42ZM145.73 360.77L145.8 360.48L142.07 359.64V359.94L145.73 360.77ZM146.17 358.85L146.23 358.56L142.07 357.62V357.92L146.17 358.85ZM145.72 382L145.8 381.72L142.07 380.77V381.08L145.72 382ZM142.07 379L146.21 380.06L146.28 379.77L142.07 378.7V379ZM146.69 387.93L146.6 387.65L142.07 389.14V389.46L146.69 387.93ZM146.07 386.06L145.98 385.78L142.07 387.07V387.38L146.07 386.06ZM203 328.26L203.26 328.4L205.39 324.68H205L203 328.26ZM204.71 329.26L204.97 329.4L207.66 324.7H207.32L204.71 329.26ZM196.83 327.26L194.72 324.68H194.34L196.6 327.44L196.83 327.26ZM198.12 326.2L198.35 326.01L197.27 324.68H196.88L198.12 326.2ZM188.64 330.72L186.46 324.72H186.15L188.36 330.86L188.64 330.72ZM190.22 330.15L190.5 330.05L188.56 324.68H188.24L190.22 330.15ZM175.92 327.94L176.21 328.01L177.05 324.68H176.75L175.92 327.94ZM177.83 328.43L178.11 328.5L179.11 324.68H178.8L177.83 328.43ZM154.69 327.37L154.98 327.45L155.76 324.68H155.45L154.69 327.37ZM157.81 324.68H157.5L156.59 327.9L156.87 327.99L157.81 324.68ZM210.2 401.33L213.02 402.85V402.51L210.34 401.07L210.2 401.33ZM211.28 399.33L211.14 399.59L213.02 400.59V400.26L211.28 399.33ZM213 413.28V412.89L210.2 415.31L210.4 415.53L213 413.28ZM213 410.68V410.29L208.92 413.82L209.11 414.04L213 410.68ZM212.68 421.4L212.79 421.68L213 421.6V421.28L212.68 421.4ZM211.96 419.57L212.07 419.85L213 419.48V419.16L211.96 419.57ZM209.96 429.88L209.9 430.17L212.96 430.86V430.55L209.96 429.88ZM212.96 428.53L210.4 427.95L210.33 428.24L212.96 428.84V428.53ZM185.37 405.1L189.74 410.44L189.97 410.25L185.6 404.92L185.37 405.1ZM188.44 411.5L184.07 406.17L183.85 406.35L188.21 411.69L188.44 411.5ZM180.26 415L178.26 409.42L178.12 409.91L179.99 415.1L180.26 415ZM182.11 414.33L179.77 407.84L179.49 407.94L181.83 414.43L182.11 414.33ZM178.11 421.84L177.85 421.69L174.42 427.69L174.68 427.84L178.11 421.84ZM176.11 420.72L174 424.5L173.67 425.67L176.44 420.83L176.11 420.72ZM203.92 420.88L203.64 420.81L201.94 427.49L202.23 427.56L203.92 420.88ZM205.84 421.36L205.55 421.29L203.85 427.98L204.14 428.05L205.84 421.36ZM194.68 427L188.33 424.31L188.21 424.58L194.56 427.27L194.68 427ZM195.45 425.18L189.1 422.49L188.98 422.76L195.33 425.46L195.45 425.18ZM183.21 427.47L184.47 431.65H184.78L183.49 427.38L183.21 427.47ZM181.61 427.95L181.32 428.03L182.41 431.65H182.72L181.61 427.95ZM201.2 414.55L200.97 414.36L196.64 419.72L196.87 419.91L201.2 414.55ZM199.44 413.12L195.1 418.48L195.33 418.67L199.67 413.31L199.44 413.12ZM200.66 402.96H200.36L199.59 409.81H199.88L200.66 402.96ZM198.4 402.71L197.63 409.56H197.93L198.7 402.7L198.4 402.71ZM203.25 399.4L205.38 395.68H205L203 399.25L203.25 399.4ZM207.31 395.68L204.7 400.23L204.96 400.38L207.65 395.68H207.31ZM196.59 398.44L196.82 398.25L194.71 395.68H194.33L196.59 398.44ZM198.11 397.19L198.34 397L197.26 395.68H196.87L198.11 397.19ZM188.63 401.71L186.45 395.71H186.14L188.35 401.84L188.63 401.71ZM190.21 401.15L190.49 401.04L188.55 395.68H188.23L190.21 401.15ZM176.31 397.34L176.48 397.89L177.04 395.68H176.74L176.31 397.34ZM177.82 399.42L178.1 399.49L179.1 395.68H178.79L177.82 399.42ZM141.75 350.51L141.86 350.79L142.07 350.7V350.39L141.75 350.51ZM142.07 348.27L141.07 348.68L141.18 348.95L142.11 348.59L142.07 348.27ZM139 359.27L142.07 359.96V359.66L139.07 358.98L139 359.27ZM139.44 357.35L142.07 357.94V357.64L139.5 357L139.44 357.35ZM142.07 380.79L139.07 380.04L139 380.33L142 381.1L142.07 380.79ZM139.6 378.13L139.53 378.42L142.07 379.06V378.76L139.6 378.13ZM142.07 389.52V389.2L140.07 389.87L140.16 390.15L142.07 389.52ZM142.07 387.44V387.13L139.43 388L139.52 388.28L142.07 387.44ZM135.73 393.44L135.48 393.3L134.1 395.71H134.44L135.73 393.44ZM137.44 394.44L137.19 394.29L136.37 395.73H136.71L137.44 394.44ZM121.28 393.15L123.38 395.73H123.77L121.51 392.96L121.28 393.15ZM122.8 391.9L125.93 395.73H126.31L123.03 391.73L122.8 391.9ZM117.2 394.61L116.92 394.71L117.29 395.71H117.61L117.2 394.61ZM112.9 335.51L113.9 336.79L112.9 335.46V335.51ZM106.69 337.74L109.04 344.22L109.31 344.12L107 337.54L106.69 337.74ZM108.55 337.07L110.89 343.55L111.17 343.45L108.83 336.97L108.55 337.07ZM133 384.83L126.65 382.14L126.54 382.41L132.89 385.1L133 384.83ZM132.23 386.65L125.89 383.95L125.77 384.23L132.12 386.92L132.23 386.65ZM133 367.23L131.12 373.87L131.4 373.95L133.28 367.31L133 367.23ZM135.18 367.85L134.89 367.77L133.02 374.4L133.3 374.48L135.18 367.85ZM125.01 368.56L123.01 361.96L122.73 362.04L124.73 368.65L125.01 368.56ZM126.89 367.99L124.89 361.39L124.61 361.47L126.61 368.08L126.89 367.99ZM107.17 350.87L106.92 350.72L103.49 356.72L103.75 356.86L107.17 350.87ZM105.46 349.87L105.21 349.72L101.78 355.72L102.04 355.86L105.46 349.87ZM123.73 356L117.38 353.31L117.27 353.58L123.62 356.28L123.73 356ZM124.5 354.19L118.15 351.5L118.04 351.77L124.39 354.46L124.5 354.19ZM112.56 385.35L119.39 384.35V384.06L112.56 385.06V385.35ZM112.84 387.3L119.67 386.3V386.01L112.84 387.01V387.3ZM117.84 378.9L118.13 378.96L119.67 372.24L119.38 372.17L117.84 378.9ZM121.3 372.61L119.76 379.34L120.05 379.4L121.59 372.68L121.3 372.61ZM102.5 360.71L99.87 361.86L99.97 362.14L102.62 360.98L102.5 360.71ZM103.28 362.52L100.51 363.73L100.61 364.01L103.4 362.79L103.28 362.52ZM112.28 356.52L114.28 363.13L114.57 363.04L112.57 356.44L112.28 356.52ZM110.39 357.09L112.39 363.69L112.68 363.61L110.68 357.01L110.39 357.09ZM95.29 344.3L95.47 344.53L100.98 340.38L100.8 340.14L95.29 344.3ZM102.17 341.95L101.99 341.72L96.48 345.87L96.66 346.11L102.17 341.95ZM112.58 375.86L106.23 373.17L106.11 373.44L112.46 376.13L112.58 375.86ZM106.88 371.62L113.23 374.31L113.35 374.04L107 371.3L106.88 371.62ZM139.4 401.12L139.26 401.38L139.51 401.18L139.4 401.12ZM140.33 399.39L140.19 399.65L140.92 400.04L141.16 399.83L140.33 399.39ZM129 406.61H129.3L129.71 402.91H129.42L129 406.61ZM127 406.27L127.29 406.36L127.7 402.69H127.41L127 406.27ZM134.39 395.63H134.05L132.05 399.2L132.3 399.35L134.39 395.63ZM136.66 395.63H136.32L133.71 400.18L133.97 400.33L136.66 395.63ZM125.6 398.39L125.82 398.2L123.72 395.63H123.33L125.6 398.39ZM127.12 397.14L127.35 396.95L126.26 395.63H125.88L127.12 397.14ZM117.24 395.63L118.67 399.63L119.22 400.27L117.56 395.67L117.24 395.63Z" fill="white"/>
<path d="M200.16 290C200.16 290 183.92 287.74 176.42 292.59C168.92 297.44 131.86 360.78 131.86 360.78L111.39 333.23L93.64 341.2C93.64 341.2 101.96 373.4 111.64 389.42C121.32 405.44 126.84 407.06 130.16 406.53C140.04 404.96 168.66 371.85 168.66 371.85L179.06 406.45L172 431.6H303.5L287.55 405C287.55 405 308.36 309 303.06 298.83C297.76 288.66 266.88 290 257.17 290H229.37C225.157 290.835 220.875 291.277 216.58 291.32C211.088 291.16 205.607 290.72 200.16 290V290Z" stroke="#263238" stroke-width="0.985332"/>
<path d="M168.67 371.85C164.863 364.243 163.385 355.683 164.42 347.24C166.35 333.77 174.69 319.02 174.69 319.02C174.69 319.02 158.05 343.02 158.05 351.02C158.05 359.02 163 370.72 163 370.72L158.68 383.05L168.67 371.85Z" fill="#263238" stroke="#263238" stroke-width="0.985332" stroke-linecap="round" stroke-linejoin="round"/>
<path d="M213.93 276.73L214.37 290.85L202.46 291.29C202.46 291.29 200 343.1 210.6 352.37C221.2 361.64 253.2 290 253.2 290L242.2 287.79L238.67 259.11L213.93 276.73Z" fill="#CFCFCF" stroke="#263238" stroke-width="0.985332" stroke-linecap="round" stroke-linejoin="round"/>
<path d="M239.94 264.71L214.47 288.71V280.22L239.94 264.71Z" fill="#263238" stroke="#263238" stroke-width="0.985332" stroke-linecap="round" stroke-linejoin="round"/>
<path d="M210.6 352.37C210.6 352.37 211.88 344.03 218.29 333.13Z" fill="white"/>
<path d="M210.6 352.37C210.6 352.37 211.88 344.03 218.29 333.13" stroke="#263238" stroke-width="0.985332" stroke-linecap="round" stroke-linejoin="round"/>
<path d="M208.8 197.11L179.8 227.26C182.078 233.677 183.183 240.452 183.06 247.26C182.72 257.94 192.43 273.65 200.37 280.95C208.31 288.25 224.51 277.03 230.56 273.07C234.601 270.332 238.368 267.211 241.81 263.75C244.017 263.654 246.163 263 248.048 261.85C249.934 260.699 251.496 259.089 252.59 257.17C252.59 257.17 210.45 212.14 208.8 197.11Z" fill="#CFCFCF" stroke="#263238" stroke-width="0.985332" stroke-linecap="round" stroke-linejoin="round"/>
<path d="M200.94 228.07C201.943 230.113 202.592 232.31 202.86 234.57C202.95 237.36 198.06 250.43 198.76 251.3C199.46 252.17 201.65 255.05 203.36 254.68" stroke="#263238" stroke-width="0.985332" stroke-linecap="round" stroke-linejoin="round"/>
<path d="M213 242.36C217.086 240.829 221.579 240.776 225.7 242.21" stroke="#263238" stroke-width="0.492666" stroke-linecap="round" stroke-linejoin="round"/>
<path d="M190.43 243.4C192.614 242.787 194.871 242.47 197.14 242.46" stroke="#263238" stroke-width="0.492666" stroke-linecap="round" stroke-linejoin="round"/>
<path d="M197.28 220.68C196.159 220.597 195.035 220.774 193.994 221.197C192.953 221.62 192.024 222.278 191.28 223.12C188.77 226.01 187.55 228.53 186.92 226.49C186.29 224.45 189.09 220.7 190.08 219.94C191.07 219.18 195.71 216.2 197.28 220.68Z" fill="#263238"/>
<path d="M209.69 219C212.632 218.989 215.534 219.674 218.16 221C221.99 223.1 220.16 218.84 217.47 217.62C214.78 216.4 210.12 216.52 209.69 219Z" fill="#263238"/>
<path d="M254.09 269.15C254.27 272.15 252.72 274.65 250.65 274.77C248.58 274.89 246.75 272.57 246.57 269.59C246.39 266.61 247.64 258.92 249.71 258.8C251.78 258.68 253.92 266.16 254.09 269.15Z" fill="#FFF0D9" stroke="#263238" stroke-width="0.985332" stroke-linecap="round" stroke-linejoin="round"/>
<path d="M196.09 238C196.23 240 195.47 241.62 194.4 241.69C193.33 241.76 192.4 240.23 192.23 238.27C192.06 236.31 192.85 234.65 193.92 234.58C194.99 234.51 196 236.08 196.09 238Z" fill="#263238"/>
<path d="M217.67 237.23C217.81 239.23 217.05 240.84 215.99 240.92C214.93 241 213.99 239.46 213.81 237.49C213.63 235.52 214.44 233.88 215.5 233.81C216.56 233.74 217.54 235.27 217.67 237.23Z" fill="#263238"/>
<path d="M203.22 260.37C203.22 260.37 208.31 262 215.22 256.09" stroke="#263238" stroke-width="0.985332" stroke-linecap="round" stroke-linejoin="round"/>
<path d="M111.39 333.25L102.08 320.78C101.65 317.46 100.82 310.6 100.68 305.97C100.49 299.67 100.8 295.82 97.22 290.23C93.64 284.64 83.65 275.81 82.71 273.76C81.77 271.71 79.05 277.49 80.76 281.24C82.47 284.99 84.03 286.14 84.03 286.14C84.03 286.14 65.64 277 65.03 278.49C64.42 279.98 73.59 306.33 77.79 313.28C79.54 316.18 84.39 320.06 86.73 323.42C87.8744 325.078 88.8557 326.843 89.66 328.69C91.84 337.96 94.38 348.16 95.66 348.53C98.57 349.38 110.92 349.58 111.39 333.25Z" fill="#CFCFCF" stroke="#263238" stroke-width="0.985332" stroke-miterlimit="10"/>
<path d="M85.25 304.6C85.0819 304.645 84.9065 304.657 84.7339 304.634C84.5613 304.611 84.395 304.554 84.2444 304.467C84.0938 304.38 83.962 304.263 83.8566 304.125C83.7511 303.986 83.6741 303.828 83.63 303.66L69 249.57C68.9218 249.243 68.9713 248.898 69.1386 248.607C69.3059 248.315 69.5782 248.098 69.9 248V248C70.238 247.911 70.5975 247.959 70.9007 248.133C71.2039 248.307 71.4264 248.593 71.52 248.93L86.19 303C86.2727 303.337 86.2207 303.692 86.0451 303.991C85.8696 304.29 85.5843 304.508 85.25 304.6V304.6Z" fill="#263238" stroke="#263238" stroke-width="0.985332" stroke-miterlimit="10"/>
<path d="M74.7 270.19C74.7 270.19 60.58 277.65 61.45 279.11C62.32 280.57 64.9 285.78 66.08 285.66C67.26 285.54 75.83 278.54 76.45 277.66C77.07 276.78 74.7 270.19 74.7 270.19Z" fill="#CFCFCF" stroke="#263238" stroke-width="0.985332" stroke-miterlimit="10"/>
<path d="M77.22 279.35C77.22 279.35 65.49 288 65.87 289.26C66.25 290.52 72 305.43 73 306.64C74 307.85 83.18 303.64 83.18 303.64L77.22 279.35Z" fill="#CFCFCF" stroke="#263238" stroke-width="0.985332" stroke-miterlimit="10"/>
<path d="M79 287.39C79 287.39 67.77 296.21 68.51 296.49" stroke="#263238" stroke-width="0.985332" stroke-miterlimit="10"/>
<path d="M81.12 296.95L71.68 302.48" stroke="#263238" stroke-width="0.985332" stroke-miterlimit="10"/>
<path d="M84 286.14L89.18 291.2C89.18 291.2 82.3 305.89 88.89 314" stroke="#263238" stroke-width="0.985332" stroke-miterlimit="10"/>
<path d="M288.39 293.13C288.39 293.13 300.96 291.49 306.39 301.88C311.82 312.27 345.75 404.1 346.3 412.88C346.85 421.66 323.88 423.81 316.23 419.99C308.58 416.17 287.23 370.79 285.07 364.77" fill="#FFF0D9"/>
<path d="M292.386 356.718L290.523 363.342L290.811 363.423L292.674 356.799L292.386 356.718Z" fill="white"/>
<path d="M296.73 338.04L294.82 331.41L294.53 331.5L296.45 338.12L296.73 338.04Z" fill="white"/>
<path d="M295.795 357.376L293.912 364.014L294.2 364.096L296.084 357.458L295.795 357.376Z" fill="white"/>
<path d="M298.69 353.03L294.32 347.69L294.09 347.88L298.46 353.21L298.69 353.03Z" fill="white"/>
<path d="M308.122 360.185L301.797 362.944L301.917 363.219L308.242 360.46L308.122 360.185Z" fill="white"/>
<path d="M307.53 368.14L307.28 367.98L303.59 373.81L303.84 373.97L307.53 368.14Z" fill="white"/>
<path d="M292.64 332.04L294.55 338.67L294.84 338.58L292.92 331.96L292.64 332.04Z" fill="white"/>
<path d="M301.92 372.75L302.17 372.91L305.86 367.09L305.61 366.93L301.92 372.75Z" fill="white"/>
<path d="M300.21 351.78L295.85 346.44L295.62 346.63L299.98 351.96L300.21 351.78Z" fill="white"/>
<path d="M306.824 339.334L301.308 343.479L301.488 343.719L307.004 339.573L306.824 339.334Z" fill="white"/>
<path d="M305.44 309.97L307.43 316.58L307.71 316.49L305.73 309.89L305.44 309.97Z" fill="white"/>
<path d="M305.81 338.02L305.63 337.78L300.12 341.93L300.3 342.17L305.81 338.02Z" fill="white"/>
<path d="M302.17 302L304.24 298.73C304.17 298.66 304.11 298.58 304.04 298.5L301.92 301.84L302.17 302Z" fill="white"/>
<path d="M296.12 314.45L296.36 314.63L300.55 309.15L300.32 308.97L296.12 314.45Z" fill="white"/>
<path d="M299.88 323.44L306.23 326.13L306.35 325.86L300 323.17L299.88 323.44Z" fill="white"/>
<path d="M307.33 309.4L309.32 316.01L309.6 315.92L307.62 309.32L307.33 309.4Z" fill="white"/>
<path d="M306.91 353.56L310.34 347.57L310.08 347.43L306.66 353.41L306.91 353.56Z" fill="white"/>
<path d="M299.238 325.009L299.125 325.276L305.477 327.971L305.59 327.704L299.238 325.009Z" fill="white"/>
<path d="M307.316 358.418L300.991 361.176L301.111 361.451L307.436 358.693L307.316 358.418Z" fill="white"/>
<path d="M323 420.13L322.89 420.4L326.08 421.76H326.86L323 420.13Z" fill="white"/>
<path d="M324.38 398.68L322.44 393.31L322.04 392.2L321.76 392.3L322.13 393.31L324.1 398.78L324.38 398.68Z" fill="white"/>
<path d="M317.74 404.04L322.11 409.38L322.33 409.19L317.97 403.85L317.74 404.04Z" fill="white"/>
<path d="M322.52 399.35L320.35 393.31L320.18 392.87L319.91 392.96L320.03 393.31L322.25 399.45L322.52 399.35Z" fill="white"/>
<path d="M324.46 383.74L317.63 384.7L317.67 384.99L324.5 384.03L324.46 383.74Z" fill="white"/>
<path d="M344.3 413.22L346.15 411.62L346.09 411.29L344.09 413L344.3 413.22Z" fill="white"/>
<path d="M294.56 313.25L294.79 313.43L298.99 307.95L298.75 307.77L294.56 313.25Z" fill="white"/>
<path d="M286.688 349.516L286.406 349.617L288.749 356.107L289.031 356.006L286.688 349.516Z" fill="white"/>
<path d="M343 411.73L345.64 409.45C345.607 409.345 345.581 409.238 345.56 409.13L342.81 411.51L343 411.73Z" fill="white"/>
<path d="M323.86 407.94L319.49 402.61L319.26 402.79L323.63 408.13L323.86 407.94Z" fill="white"/>
<path d="M288.039 331.784L287.639 338.672L287.938 338.69L288.339 331.801L288.039 331.784Z" fill="white"/>
<path d="M319.37 360.68L317.39 354.08L317.1 354.16L319.09 360.77L319.37 360.68Z" fill="white"/>
<path d="M313.664 334.54L313.391 334.639L315.733 341.129L316.005 341.031L313.664 334.54Z" fill="white"/>
<path d="M312.66 322.37L311.71 326.12L312 326.19L312.97 322.37L313.7 319.5L313.41 319.43L312.66 322.37Z" fill="white"/>
<path d="M310.63 322.37L309.8 325.63L310.09 325.7L310.93 322.37L311.79 319.02L311.5 318.95L310.63 322.37Z" fill="white"/>
<path d="M315.21 354.73L317.2 361.33L317.48 361.25L315.5 354.64L315.21 354.73Z" fill="white"/>
<path d="M311.794 335.238L311.521 335.337L313.864 341.827L314.137 341.728L311.794 335.238Z" fill="white"/>
<path d="M288.555 348.828L288.272 348.929L290.614 355.42L290.896 355.318L288.555 348.828Z" fill="white"/>
<path d="M303.84 303L305.52 300.35L305.34 300.07L303.59 302.85L303.84 303Z" fill="white"/>
<path d="M311.71 369.26L318.06 371.95L318.17 371.68L311.82 368.99L311.71 369.26Z" fill="white"/>
<path d="M294.26 297.94L294 297.79L290.57 303.77L290.83 303.92L294.26 297.94Z" fill="white"/>
<path d="M341 394.3L340.87 393.93L338.62 397.87L338.87 398.01L341 394.3Z" fill="white"/>
<path d="M334.55 400.6L334.26 400.57L333.48 407.42L333.78 407.45L334.55 400.6Z" fill="white"/>
<path d="M330.773 381.673L330.659 381.94L337.011 384.635L337.125 384.368L330.773 381.673Z" fill="white"/>
<path d="M339.27 393.31L340.14 391.8L340.02 391.42L338.93 393.31L336.88 396.89L337.14 397.03L339.27 393.31Z" fill="white"/>
<path d="M335.1 412.19L334.87 412L330.53 417.36L330.76 417.55L335.1 412.19Z" fill="white"/>
<path d="M336.81 382.07L331.53 379.83L331.42 380.1L336.94 382.44L336.81 382.07Z" fill="white"/>
<path d="M333.56 410.95L333.33 410.76L329 416.12L329.23 416.31L333.56 410.95Z" fill="white"/>
<path d="M326.42 370.37L326.13 370.3L324.59 377.02L324.88 377.09L326.42 370.37Z" fill="white"/>
<path d="M330.48 396.08L330.71 395.89L328.6 393.31L326.34 390.55L326.11 390.74L328.22 393.31L330.48 396.08Z" fill="white"/>
<path d="M292.28 304.75L292.54 304.9L295.97 298.91L295.71 298.77L292.28 304.75Z" fill="white"/>
<path d="M311.792 406.173L311.519 406.272L313.862 412.762L314.135 412.663L311.792 406.173Z" fill="white"/>
<path d="M337.9 418.54L337.61 418.46L337.08 420.54L337.41 420.45L337.9 418.54Z" fill="white"/>
<path d="M313.67 405.479L313.397 405.578L315.739 412.068L316.012 411.97L313.67 405.479Z" fill="white"/>
<path d="M322.88 349.46L325.52 350.58C325.52 350.45 325.42 350.32 325.38 350.2L322.99 349.2L322.88 349.46Z" fill="white"/>
<path d="M339.81 419L339.52 418.93L339.28 419.86L339.62 419.74L339.81 419Z" fill="white"/>
<path d="M305.58 398.62L300.34 396.4L300.56 396.81L305.46 398.89L305.58 398.62Z" fill="white"/>
<path d="M287.67 308.76L291.08 312.31L291.3 312.11L287.69 308.36L287.67 308.76Z" fill="white"/>
<path d="M317.74 333.1L320.08 335.95L319.75 335.09L318 332.91L317.74 333.1Z" fill="white"/>
<path d="M289.66 313.68L289.87 313.47L287.57 311.07L287.55 311.48L289.66 313.68Z" fill="white"/>
<path d="M327.61 359.73L329.6 366.34L329.88 366.25L327.9 359.65L327.61 359.73Z" fill="white"/>
<path d="M306.35 396.81L300 394.11L299.88 394.38L306.23 397.08L306.35 396.81Z" fill="white"/>
<path d="M298.99 378.9L298.75 378.72L294.56 384.19L294.79 384.37L298.99 378.9Z" fill="white"/>
<path d="M309.6 386.87L307.62 380.26L307.33 380.35L309.32 386.95L309.6 386.87Z" fill="white"/>
<path d="M307.71 387.44L305.73 380.83L305.44 380.92L307.43 387.52L307.71 387.44Z" fill="white"/>
<path d="M300.55 380.09L300.32 379.92L296.12 385.39L296.36 385.57L300.55 380.09Z" fill="white"/>
<path d="M290.47 325.59L290.76 325.67L291.69 322.37L292.63 319.04L292.35 318.95L291.38 322.37L290.47 325.59Z" fill="white"/>
<path d="M289.33 322.37L288.57 325.06L288.86 325.14L289.64 322.37L290.73 318.5L290.45 318.42L289.33 322.37Z" fill="white"/>
<path d="M294.26 368.88L294 368.73L290.57 374.72L290.83 374.86L294.26 368.88Z" fill="white"/>
<path d="M295.97 369.86L295.71 369.71L292.28 375.7L292.54 375.84L295.97 369.86Z" fill="white"/>
<path d="M311.8 348.41L308.37 354.39L308.62 354.54L312.05 348.55L311.8 348.41Z" fill="white"/>
<path d="M324.21 369.86L322.67 376.58L322.96 376.65L324.5 369.93L324.21 369.86Z" fill="white"/>
<path d="M326.31 352.73L322.22 351L322.11 351.27L326.45 353.11C326.4 353 326.36 352.86 326.31 352.73Z" fill="white"/>
<path d="M324.23 382.08L324.19 381.79L317.36 382.75L317.4 383.04L324.23 382.08Z" fill="white"/>
<path d="M327.87 389.3L327.64 389.49L330.77 393.31L332.01 394.83L332.24 394.64L331.15 393.31L327.87 389.3Z" fill="white"/>
<path d="M312.97 393.31L313.7 390.45L313.41 390.38L312.66 393.31L311.71 397.06L312 397.13L312.97 393.31Z" fill="white"/>
<path d="M311.056 370.834L310.942 371.101L317.294 373.796L317.407 373.529L311.056 370.834Z" fill="white"/>
<path d="M310.93 393.31L311.79 389.96L311.5 389.89L310.63 393.31L309.8 396.57L310.09 396.65L310.93 393.31Z" fill="white"/>
<path d="M331.82 407.23L332.59 400.38L332.3 400.35L331.52 407.2L331.82 407.23Z" fill="white"/>
<path d="M288.39 293.13C288.39 293.13 300.96 291.49 306.39 301.88C311.82 312.27 345.75 404.1 346.3 412.88C346.85 421.66 323.88 423.81 316.23 419.99C308.58 416.17 287.23 370.79 285.07 364.77" stroke="#263238" stroke-width="0.985332"/>
<path d="M212.4 418.32C212.4 418.32 186.71 415.04 182.33 415.58C177.95 416.12 158.28 429.25 158.28 429.25H214L212.4 418.32Z" fill="#CFCFCF" stroke="#263238" stroke-width="0.985332" stroke-linecap="round" stroke-linejoin="round"/>
<path d="M318.45 400.82L212.45 418.32L214 429.25H344.7C345.716 423.841 346.265 418.354 346.34 412.85C346.34 404.65 341.42 395.36 341.42 395.36" fill="#FFF0D9"/>
<path d="M327.23 418.87L329.22 425.47L329.5 425.39L327.52 418.78L327.23 418.87Z" fill="white"/>
<path d="M334.49 400.19L330.15 405.55L330.38 405.74L334.72 400.38L334.49 400.19Z" fill="white"/>
<path d="M328.62 404.31L328.85 404.5L333.18 399.14L332.95 398.95L328.62 404.31Z" fill="white"/>
<path d="M314.83 413.86L316.82 420.47L317.1 420.38L315.12 413.78L314.83 413.86Z" fill="white"/>
<path d="M331.39 424.82L329.4 418.21L329.12 418.3L331.11 424.9L331.39 424.82Z" fill="white"/>
<path d="M318.99 419.82L317.01 413.21L316.72 413.3L318.71 419.9L318.99 419.82Z" fill="white"/>
<path d="M337.237 406.654L335.538 413.342L335.829 413.416L337.528 406.728L337.237 406.654Z" fill="white"/>
<path d="M336.02 429.25H336.33L337.78 424.13L337.49 424.05L336.02 429.25Z" fill="white"/>
<path d="M311.44 428.12L311.33 428.39L313.35 429.25H314.11L311.44 428.12Z" fill="white"/>
<path d="M339.121 407.092L337.421 413.779L337.712 413.853L339.412 407.166L339.121 407.092Z" fill="white"/>
<path d="M288.165 407.957L287.883 408.059L290.225 414.549L290.507 414.447L288.165 407.957Z" fill="white"/>
<path d="M321.73 410.41L328.07 413.1L328.19 412.83L321.84 410.13L321.73 410.41Z" fill="white"/>
<path d="M323.83 429L323.77 429.25H324.07L324.12 429.06L323.83 429Z" fill="white"/>
<path d="M322.611 408.342L322.498 408.609L328.85 411.304L328.963 411.037L322.611 408.342Z" fill="white"/>
<path d="M293.71 407.01L298.08 412.35L298.31 412.16L293.94 406.82L293.71 407.01Z" fill="white"/>
<path d="M299.83 410.91L295.46 405.58L295.24 405.76L299.6 411.1L299.83 410.91Z" fill="white"/>
<path d="M342.63 399.92L343.24 399.39L343.12 399.1L342.44 399.7L342.63 399.92Z" fill="white"/>
<path d="M293.518 415.974L291.634 422.612L291.923 422.694L293.806 416.056L293.518 415.974Z" fill="white"/>
<path d="M343.9 414.12L346.31 414.67C346.31 414.57 346.31 414.47 346.31 414.37L343.95 413.83L343.9 414.12Z" fill="white"/>
<path d="M306.9 427.12L305.55 429.25H305.9L307.15 427.27L306.9 427.12Z" fill="white"/>
<path d="M346.24 416.37L343.53 415.76L343.46 416.04L346.22 416.67C346.23 416.57 346.24 416.47 346.24 416.37Z" fill="white"/>
<path d="M343.92 401.41L343.99 401.35L343.88 401.05L343.73 401.19L343.92 401.41Z" fill="white"/>
<path d="M306.932 417.54L300.607 420.298L300.727 420.573L307.052 417.815L306.932 417.54Z" fill="white"/>
<path d="M305.48 426.22L305.23 426.06L303.21 429.25H303.56L305.48 426.22Z" fill="white"/>
<path d="M295.436 416.564L293.552 423.202L293.841 423.284L295.724 416.646L295.436 416.564Z" fill="white"/>
<path d="M307.742 419.323L301.417 422.082L301.537 422.357L307.862 419.598L307.742 419.323Z" fill="white"/>
<path d="M311.67 407.69L311.42 407.54L307.99 413.53L308.24 413.68L311.67 407.69Z" fill="white"/>
<path d="M306.28 412.55L306.53 412.69L309.96 406.71L309.7 406.56L306.28 412.55Z" fill="white"/>
<path d="M235.996 417.546L229.671 420.304L229.791 420.579L236.116 417.821L235.996 417.546Z" fill="white"/>
<path d="M222.94 428.01L222.68 427.87L221.89 429.25H222.23L222.94 428.01Z" fill="white"/>
<path d="M220.98 422.7L222.7 416.62L222.38 416.67L220.7 422.62L220.98 422.7Z" fill="white"/>
<path d="M224.65 428.99L224.39 428.85L224.16 429.25H224.5L224.65 428.99Z" fill="white"/>
<path d="M257.9 411.28L258.02 411.01L257.64 410.86L257.1 410.94L257.9 411.28Z" fill="white"/>
<path d="M265.08 429.25H265.39L266.83 424.13L266.55 424.05L265.08 429.25Z" fill="white"/>
<path d="M267.67 409.2L266.5 413.82L266.78 413.9L267.99 409.15L267.67 409.2Z" fill="white"/>
<path d="M234.54 426.22L234.29 426.06L232.27 429.25H232.62L234.54 426.22Z" fill="white"/>
<path d="M236.21 427.27L235.96 427.12L234.6 429.25H234.95L236.21 427.27Z" fill="white"/>
<path d="M295.33 428.85L295.1 429.25H295.44L295.59 428.99L295.33 428.85Z" fill="white"/>
<path d="M339.39 424.59L338.07 429.25H338.38L339.67 424.67L339.39 424.59Z" fill="white"/>
<path d="M286.309 408.641L286.027 408.743L288.37 415.233L288.652 415.131L286.309 408.641Z" fill="white"/>
<path d="M268.44 424.59L267.13 429.25H267.43L268.73 424.67L268.44 424.59Z" fill="white"/>
<path d="M240.5 428.12L240.38 428.39L242.41 429.25H243.16L240.5 428.12Z" fill="white"/>
<path d="M293.88 428.01L293.62 427.87L292.83 429.25H293.17L293.88 428.01Z" fill="white"/>
<path d="M222.966 416.102L221.103 422.726L221.391 422.807L223.254 416.183L222.966 416.102Z" fill="white"/>
<path d="M279.85 421.12L279.57 421.01L277.05 427.43L277.32 427.54L279.85 421.12Z" fill="white"/>
<path d="M236.783 419.349L230.459 422.107L230.578 422.382L236.903 419.624L236.783 419.349Z" fill="white"/>
<path d="M281.68 421.83L281.4 421.73L278.88 428.15L279.16 428.25L281.68 421.83Z" fill="white"/>
<path d="M272.52 416.05L275.58 416.74L279.24 417.56L279.31 417.27L275.58 416.43L272.58 415.76L272.52 416.05Z" fill="white"/>
<path d="M279.68 415.64L279.75 415.35L275.58 414.41L273.02 413.83L272.95 414.12L275.58 414.71L279.68 415.64Z" fill="white"/>
<path d="M264.88 413.41L265.87 409.5L265.55 409.55L264.59 413.34L264.88 413.41Z" fill="white"/>
<path d="M257.25 412.83L254.01 411.45L253.47 411.54L257.13 413.1L257.25 412.83Z" fill="white"/>
<path d="M247.76 419.9L248.05 419.82L246.06 413.21L245.78 413.3L247.76 419.9Z" fill="white"/>
<path d="M246.16 420.38L244.17 413.78L243.89 413.86L245.88 420.47L246.16 420.38Z" fill="white"/>
<path d="M256.29 418.87L258.28 425.47L258.56 425.39L256.57 418.78L256.29 418.87Z" fill="white"/>
<path d="M252.88 429L252.82 429.25H253.13L253.17 429.06L252.88 429Z" fill="white"/>
<path d="M260.45 424.82L258.46 418.21L258.18 418.3L260.16 424.9L260.45 424.82Z" fill="white"/>
<path d="M318.45 400.82L212.45 418.32L214 429.25H344.7C345.716 423.841 346.265 418.354 346.34 412.85C346.34 404.65 341.42 395.36 341.42 395.36" stroke="#263238" stroke-width="0.985332"/>
<path d="M341.76 427.48H210L205.68 355C205.562 354.294 205.6 353.571 205.79 352.881C205.98 352.191 206.318 351.551 206.781 351.004C207.243 350.458 207.819 350.019 208.468 349.718C209.117 349.417 209.824 349.26 210.54 349.26H341.2C341.916 349.259 342.624 349.414 343.274 349.715C343.924 350.015 344.501 350.454 344.964 351.001C345.427 351.547 345.764 352.188 345.954 352.879C346.143 353.57 346.179 354.294 346.06 355L341.76 427.48Z" fill="#263238" stroke="#263238" stroke-width="0.985332" stroke-linecap="round" stroke-linejoin="round"/>
<path d="M216.47 351H340.25C340.949 350.993 341.641 351.138 342.278 351.426C342.915 351.714 343.481 352.137 343.937 352.667C344.393 353.196 344.728 353.819 344.919 354.492C345.109 355.164 345.151 355.87 345.04 356.56" stroke="white" stroke-width="0.985332" stroke-linecap="round" stroke-linejoin="round"/>
<path d="M206.66 355.45C206.754 354.233 207.305 353.098 208.203 352.272C209.102 351.446 210.28 350.991 211.5 351" stroke="white" stroke-width="0.985332" stroke-linecap="round" stroke-linejoin="round"/>
<path d="M342.31 420.42H209.43V427.48H342.31V420.42Z" fill="white" stroke="#263238" stroke-width="0.985332" stroke-linecap="round" stroke-linejoin="round"/>
<path d="M284.82 388.66C284.82 391.78 280.6 394.31 275.4 394.31C270.2 394.31 265.99 391.78 265.99 388.66C265.99 385.54 270.21 383.01 275.4 383.01C280.59 383.01 284.82 385.54 284.82 388.66Z" fill="white" stroke="#263238" stroke-width="0.985332" stroke-linecap="round" stroke-linejoin="round"/>
<path d="M78.94 420.2C76.1474 420.062 73.4045 419.407 70.85 418.27C70.1994 417.957 69.6948 417.405 69.4417 416.728C69.1886 416.052 69.2065 415.304 69.4917 414.641C69.7769 413.978 70.3074 413.45 70.9723 413.168C71.6372 412.887 72.3852 412.873 73.06 413.13C75.64 414.23 78.95 414.91 79.84 414.53C81.46 412.7 83.97 401.65 80.73 396.38C80.5599 396.008 80.3032 395.682 79.9813 395.43C79.6594 395.178 79.2818 395.006 78.88 394.93C77.04 394.68 74.32 396.57 73.36 397.47C72.8127 397.946 72.1019 398.191 71.3775 398.153C70.6531 398.116 69.9715 397.799 69.4764 397.268C68.9812 396.738 68.7112 396.037 68.723 395.311C68.7349 394.586 69.0278 393.894 69.54 393.38C70.05 392.9 74.69 388.73 79.62 389.38C80.8438 389.563 82.0093 390.024 83.027 390.728C84.0446 391.432 84.8872 392.359 85.49 393.44C90.26 401.2 87 416 83.33 418.9C82.0559 419.817 80.5083 420.276 78.94 420.2V420.2Z" fill="#263238" stroke="#263238" stroke-width="0.985332" stroke-linecap="round" stroke-linejoin="round"/>
<path d="M73.99 387.1H43.14V428.05H73.99V387.1Z" fill="#263238" stroke="#263238" stroke-width="0.985332" stroke-linecap="round" stroke-linejoin="round"/>
<path d="M45.94 384.86C45.94 384.86 45.94 381.45 52.19 378.04C58.44 374.63 61.85 369.52 58.44 359.86C55.03 350.2 55.6 343.38 62.44 337.69" stroke="#263238" stroke-width="0.985332" stroke-linecap="round" stroke-linejoin="round"/>
<path d="M47.36 348.51C47.68 344.36 49.53 340.85 53.36 337.69" stroke="#263238" stroke-width="0.985332" stroke-linecap="round" stroke-linejoin="round"/>
<path d="M49.35 359.86C48.7257 358.137 48.2211 356.373 47.84 354.58" stroke="#263238" stroke-width="0.985332" stroke-linecap="round" stroke-linejoin="round"/>
<path d="M71.32 363.19C71.0805 362.059 70.7631 360.947 70.37 359.86L69.85 358.32" stroke="#263238" stroke-width="0.985332" stroke-linecap="round" stroke-linejoin="round"/>
<path d="M57.87 384.86C57.87 384.86 57.87 381.45 64.12 378.04C68.22 375.8 71.12 372.83 71.63 368.33" stroke="#263238" stroke-width="0.985332" stroke-linecap="round" stroke-linejoin="round"/>
<path d="M480.03 427.35H14.59V437.65H480.03V427.35Z" fill="#263238"/>
</svg>
